<?xml version="1.0" encoding="utf-8"?>
<!-- Generator: Adobe Illustrator 27.6.1, SVG Export Plug-In . SVG Version: 6.00 Build 0)  -->
<svg version="1.1" id="OBJECTS" xmlns="http://www.w3.org/2000/svg" xmlns:xlink="http://www.w3.org/1999/xlink" x="0px" y="0px"
	 viewBox="0 0 2800.17 1903.3" style="enable-background:new 0 0 2800.17 1903.3;" xml:space="preserve">
<style type="text/css">
	.st0{fill:#9DC11E;}
	.st1{fill:#075493;}
	.st2{fill:#2684D1;}
</style>
<g>
	<g>
		<path class="st0" d="M2584.17,1757.74l-134.63-12.07c-371.49-33.31-748.16-50.07-1125.57-50.07h0
			c-286.75,0-573.05,9.73-856.99,28.99l-26.14-152.36l-26.8,156.21c-4.98,0.36-9.95,0.72-14.93,1.08l-26.82-143.87l-27.56,147.81
			c-4.81,0.37-9.61,0.75-14.42,1.13l-26.57-134.05l-27.47,138.59c-5.02,0.42-10.05,0.84-15.07,1.27l-26.01-113.11l-27.03,117.56
			c-3.25,0.29-6.51,0.53-9.76,0.82l-11.68,1.05l-20.08-95.77l-20.84,99.44l-82.02,7.35H2584.17z"/>
		<g>
			<path class="st1" d="M2050.45,1239.15l-16.71-367.24c-1.1-24.6-3.83-49.05-8.37-73.25c-7.84-41.84-27.16-140.61,3.66-255.03
				c8.88-20.09,13.86-42.51,13.86-66.18c0-67.72-34.28-118.77-88.29-137.55l-15.44-78.92c29.32-26.09,44.87-66.29,37.42-107.77
				c-11.39-63.39-71.97-105.54-135.3-94.14c-1.24,0.22-2.42,0.59-3.64,0.85c-29.35,1.46-51.23,10.99-51.23,10.99l-51.3-19.26
				c7.92,24.29,12.67,27.59,12.67,27.59l-42.04,6.97c17,45.79,41.59,51.07,41.59,51.07l-21.45,94.07l23.35-1.62l10.37,70.65
				c1.87,12.77,13.81,21.55,26.54,19.54l65.11-10.39l-39.98,24.87l1.26,33.95c-23.49,20.92-40.8,49.44-48.37,82.08
				c-26.26,84.13-24.04,195.13-14.98,289.99l37.59-11.32l33.7-93.26l-22.36,106.19l-47.06,17.58l-202,75.46
				c0,0-54.31,46.4-14.57,74.24l49.01-27.08l307.93-69.93l81.88-295.04l-54.89,317.24l-153.24,30.43c4.49,27.27,7.9,43.84,7.9,43.84
				l-104.45,337.23l133.16,378.47l-16.59,34.27l-75.03,39.7l-10.08,28.24h202.17l-88.7-498l45.83-71.15l-9.42-119.04l30.73,85.95
				l54.52,152.51l217.82,320.81l-6.69,58.98l-42.49,45.82l-5.13,24.13h84.42l87.12-105.07L2050.45,1239.15z"/>
			<g>
				<g>
					<path class="st2" d="M1459.34,1237.53l-81.58-109.99l-296.65,354.2l0.08,0.08c19.2-11.04,41.4-17.45,65.14-17.45
						c64.95,0,118.72,47.34,129.1,109.39l173.5-178.8C1490.49,1352.14,1494.9,1285.47,1459.34,1237.53z"/>
				</g>
				<path class="st1" d="M1162.35,1465.45c-2.79-10.64-7.91-20.31-14.72-28.52l455.18-569.46l-20.94-16.77l-454.81,568.99
					c-10.71-6.05-23.06-9.53-36.25-9.53H908.04c-97.95,0-181.28,62.4-212.63,149.62l84.98,19.08h-90.95H641.8h-13.41
					c-16.22-18.07-39.67-29.51-65.86-29.51c-48.93,0-88.59,39.69-88.59,88.66c0,48.96,39.66,88.66,88.59,88.66
					c48.93,0,88.59-39.69,88.59-88.66c0-16.78-4.74-32.41-12.83-45.79c16.87,17.58,27.32,41.36,27.32,67.66
					c0,3.43-0.18,6.82-0.53,10.16h328.74c-7.04-16.09-11-33.82-11-52.51c0-52.22,30.57-97.18,74.72-118.28
					c-25.93,23.96-42.27,58.16-42.27,96.27c0,72.43,58.67,131.15,131.05,131.15c72.37,0,131.05-58.72,131.05-131.15
					C1277.37,1528.53,1227.15,1473.37,1162.35,1465.45z M562.54,1692.07c-29.84,0-54.02-24.21-54.02-54.06
					c0-29.86,24.19-54.06,54.02-54.06c29.84,0,54.02,24.2,54.02,54.06C616.56,1667.87,592.37,1692.07,562.54,1692.07z
					 M1146.33,1675.49c-44.13,0-79.91-35.81-79.91-79.97c0-44.17,35.78-79.97,79.91-79.97c44.13,0,79.91,35.81,79.91,79.97
					C1226.24,1639.69,1190.46,1675.49,1146.33,1675.49z"/>
				<path class="st2" d="M1061.17,1468.28H784.08c-23.28,0-42.16-18.89-42.16-42.19l0,0c0-20.94,15.35-38.71,36.05-41.74
					l277.09-40.61c25.44-3.73,48.27,16.01,48.27,41.75v40.61C1103.33,1449.39,1084.45,1468.28,1061.17,1468.28z"/>
			</g>
		</g>
	</g>
</g>
</svg>
