<?xml version="1.0" encoding="utf-8"?>
<!-- Generator: Adobe Illustrator 27.6.1, SVG Export Plug-In . SVG Version: 6.00 Build 0)  -->
<svg version="1.1" id="OBJECTS" xmlns="http://www.w3.org/2000/svg" xmlns:xlink="http://www.w3.org/1999/xlink" x="0px" y="0px"
	 viewBox="0 0 500 500" style="enable-background:new 0 0 500 500;" xml:space="preserve">
<style type="text/css">
	.st0{fill:url(#SVGID_1_);}
	.st1{fill:#FFFFFF;}
	.st2{fill:url(#SVGID_00000055679943905081181660000017757475821505266603_);}
	.st3{fill:url(#SVGID_00000075872133958123046440000017279688671188491188_);}
	.st4{fill:url(#SVGID_00000079475079544934747550000010954128598424450436_);}
	.st5{opacity:0.2;fill:#040D14;}
	.st6{fill:#E67C7C;}
	.st7{fill:url(#SVGID_00000182525040534666577500000016616345885145878460_);}
	.st8{opacity:0.2;}
	.st9{fill:#0F1C3D;}
	.st10{fill:#040D14;}
	.st11{fill:url(#SVGID_00000112631944727858490900000015403560488102174618_);}
	.st12{fill:url(#SVGID_00000096048439577900061750000010396735923223749797_);}
	.st13{fill:#4D0628;}
	.st14{fill:url(#SVGID_00000084489398303663917740000010788340361382166450_);}
	.st15{fill:url(#SVGID_00000100342531737319153030000008999333332004170132_);}
	.st16{fill:url(#SVGID_00000145743742614380265640000014153877707826631051_);}
	.st17{fill:#25356D;}
	.st18{fill:url(#SVGID_00000027588547608402139240000002198003258123178881_);}
	.st19{fill:url(#SVGID_00000081615126976208062350000006239901519834962075_);}
	.st20{fill:#FFFFFF;stroke:#000000;stroke-width:1.0605;stroke-linecap:round;stroke-linejoin:round;stroke-miterlimit:10;}
	.st21{fill:url(#SVGID_00000136409006693542896430000010840605977147903365_);}
	.st22{fill:#F8B79B;}
	.st23{fill:url(#SVGID_00000055684197053040789170000011889188637574446223_);}
	.st24{opacity:0.49;fill:#040D14;}
	.st25{fill:url(#SVGID_00000143596834385301923160000000723360222204921233_);}
	.st26{fill:url(#SVGID_00000000192543671740971830000000723126351643874960_);}
	.st27{fill:url(#SVGID_00000116229186115896295800000007371945171992073613_);}
	.st28{fill:url(#SVGID_00000024708772529740443260000014105774712984210305_);}
	.st29{fill:url(#SVGID_00000024003102231583820710000010796710196208150706_);}
	.st30{opacity:0.29;fill:#E67C7C;}
	.st31{opacity:0.3;fill:#E67C7C;}
	.st32{fill:url(#SVGID_00000123437233877418281750000007257242124296229764_);}
	.st33{fill:url(#SVGID_00000010269881707705796040000007872812931050904989_);}
	.st34{fill:url(#SVGID_00000132068320277555664030000011052753277281468321_);}
	.st35{fill:url(#SVGID_00000067201031377568702520000007434940101421272509_);}
</style>
<g>
	<linearGradient id="SVGID_1_" gradientUnits="userSpaceOnUse" x1="244.787" y1="128.1962" x2="258.261" y2="429.1166">
		<stop  offset="0" style="stop-color:#B1FFFF"/>
		<stop  offset="1" style="stop-color:#FFFFFF"/>
	</linearGradient>
	<circle class="st0" cx="250" cy="244.62" r="174.41"/>
	<g>
		<g>
			<path class="st1" d="M341.25,170.46c-4.49-13.83,13.56-11.02,17.56-2.06c-0.29-7.21,0.04-15.79,9.59-15.13
				c5.89,0.41,14.2,6.51,13.21,13.21c1.79-7.46,3.25-15.41,8.67-21.45c7.09-7.89,24.55-12.73,34.5-8.6
				c10.63,4.42,17.15,16.63,14.39,28.71c9.66,2.01,16.48,6.92,16.48,12.67c0,7.53-11.73,13.64-26.19,13.64
				c-5.74,0-11.05-0.96-15.36-2.6c-30.73,9.35-90.48-1.77-90.48-1.77C310.78,185.77,323.07,161.44,341.25,170.46z"/>
		</g>
	</g>
	<g>
		<path class="st1" d="M73.49,216.2c-14.39-5.55-14.55-31.01,0.41-36.67c8.55-3.24,23.24,1.33,29.05,8.21
			c4.44,5.26,5.47,12.05,6.78,18.43c-0.66-5.71,6.55-10.67,11.56-10.86c8.12-0.31,8.17,6.98,7.73,13.09
			c3.63-7.49,19.02-9.4,14.84,2.22c9.02,1.44,39.68,4.46,32.19,7.33c-14.4,5.53-137.54,6.68-137.39,2.05
			C38.76,216.58,73.49,216.2,73.49,216.2z"/>
	</g>
</g>
<g>
	<g>
		
			<linearGradient id="SVGID_00000061471746867358386020000009583962332210095762_" gradientUnits="userSpaceOnUse" x1="319.7327" y1="270.5155" x2="307.2567" y2="334.8915">
			<stop  offset="0" style="stop-color:#6FB059"/>
			<stop  offset="1" style="stop-color:#006665"/>
		</linearGradient>
		<path style="fill:url(#SVGID_00000061471746867358386020000009583962332210095762_);" d="M174.98,339.55h262.91
			c-0.25-12.17-10.17-21.96-22.4-21.96c-4.46,0-8.61,1.32-12.1,3.56c-5.05-16.02-20.03-27.64-37.72-27.64
			c-15.64,0-29.16,9.08-35.58,22.26c-3.71-4.97-9.05-8.65-15.24-10.22c-3.43-7.15-9.33-12.89-16.59-16.12
			c0.64-2.7,0.99-5.52,0.99-8.42c0-20.1-16.3-36.4-36.4-36.4c-17.55,0-32.2,12.42-35.63,28.95c-15.27,4.52-26.41,18.64-26.41,35.38
			c0,1.59,0.11,3.16,0.31,4.7C187.26,314.74,176.19,325.73,174.98,339.55z"/>
		
			<linearGradient id="SVGID_00000140701058407022846100000011862739289545756334_" gradientUnits="userSpaceOnUse" x1="142.1966" y1="265.4681" x2="143.6937" y2="359.0379">
			<stop  offset="0" style="stop-color:#6FB059"/>
			<stop  offset="1" style="stop-color:#006665"/>
		</linearGradient>
		<path style="fill:url(#SVGID_00000140701058407022846100000011862739289545756334_);" d="M219.98,339.55
			c-0.7-9.44-8.58-16.89-18.2-16.89c-3.14,0-6.09,0.79-8.67,2.19c-2.27-7.12-8.09-12.65-15.38-14.51
			c-2.72-5.67-7.39-10.21-13.15-12.78c0.51-2.14,0.78-4.38,0.78-6.67c0-15.93-12.91-28.84-28.84-28.84
			c-13.91,0-25.51,9.84-28.24,22.94c-12.1,3.58-20.93,14.77-20.93,28.04c0,1.26,0.09,2.5,0.24,3.72
			c-11.65,0.92-20.81,10.65-20.81,22.54c0,0.09,0.01,0.17,0.01,0.26H219.98z"/>
	</g>
	
		<linearGradient id="SVGID_00000031187416282370014490000009640761271035567014_" gradientUnits="userSpaceOnUse" x1="2410.9797" y1="-142.2093" x2="-2034.8643" y2="927.1371">
		<stop  offset="0" style="stop-color:#6FB059"/>
		<stop  offset="1" style="stop-color:#007A33"/>
	</linearGradient>
	<path style="fill:url(#SVGID_00000031187416282370014490000009640761271035567014_);" d="M460.23,341.18l-0.79-22.87l-2.03,16.96
		l-0.52-15.11l-1.5,12.51l-0.4-11.57l-0.6,4.97l-0.37-10.66l-2.53,21.08h-0.43l-0.53-15.38l-1.85,15.38H448l-0.73-21.08l-2.53,21.08
		h-0.27l-0.59-17.08l-1.58,13.19l-0.65-18.69l-2.71,22.58H47.87c-5.15,0-9.33,4.18-9.33,9.33v0c0,5.15,4.18,9.33,9.33,9.33h32.28
		c5.15,0,9.33,4.18,9.33,9.33v0c0,5.15-4.18,9.33-9.33,9.33h-8.99c-5.15,0-9.33,4.18-9.33,9.33s4.18,9.33,9.33,9.33h50.13
		c5.15,0,9.33,4.18,9.33,9.33s-4.18,9.33-9.33,9.33h-8.99c-5.15,0-9.33,4.18-9.33,9.33s4.18,9.33,9.33,9.33h293.51
		c5.15,0,9.33-4.18,9.33-9.33c0-1.64-0.42-3.17-1.16-4.51l-0.77-22.16l-2.03,16.96l-0.52-15.11l-1.5,12.51l-0.4-11.57l-0.6,4.97
		l-0.31-9.08h29.56c5.15,0,9.33-4.18,9.33-9.33c0-1.28-0.26-2.5-0.72-3.61l-0.8-22.98l-2.03,16.96l-0.52-15.11l-1.5,12.51
		l-0.4-11.57l-0.6,4.97l-0.32-9.17h12.29c5.15,0,9.33-4.18,9.33-9.33v0C461.46,344.12,461.01,342.55,460.23,341.18z M432.87,355.14
		l-2.22,18.54c-0.23-0.04-0.46-0.08-0.68-0.13l-0.58-16.7l-1.58,13.19l-0.47-13.57c1.4-0.83,3.02-1.32,4.77-1.32H432.87z
		 M400.86,392.47l-2.22,18.48c-0.26-0.05-0.51-0.12-0.75-0.19l-0.55-15.87l-1.58,13.19l-0.48-14c1.49-1.01,3.3-1.61,5.24-1.61
		H400.86z M394.47,394.69l-1.51,12.58c-1.12-1.54-1.78-3.43-1.78-5.47C391.18,398.95,392.46,396.4,394.47,394.69z M405.36,411.13
		h-0.56l-0.5-14.55l-1.75,14.55h-0.8l-0.65-18.66h6.49L405.36,411.13z M422.77,364.47c0-3.04,1.46-5.73,3.7-7.43l-1.6,13.33
		C423.56,368.77,422.77,366.71,422.77,364.47L422.77,364.47z M437.37,373.8h-0.57l-0.5-14.47l-1.74,14.47h-0.81l-0.65-18.66h6.51
		L437.37,373.8z"/>
	<path class="st5" d="M300.41,370.8c-26.28,0-49.51,1.24-63.55,3.15c-8.79,1.19-17.66,1.45-26.5,0.68
		c-8.97-0.78-20.88-1.25-33.95-1.25c-27.91,0-50.54,2.16-50.54,4.81s22.63,4.81,50.54,4.81c13.07,0,24.98-0.47,33.95-1.25
		c8.83-0.76,17.71-0.51,26.5,0.68c14.04,1.9,37.27,3.15,63.55,3.15c42.87,0,77.63-3.31,77.63-7.39S343.28,370.8,300.41,370.8z"/>
</g>
<g>
	<g>
		<path class="st6" d="M226.95,256.15c0-0.22,2.96,1.4,4.24,3.49c1.28,2.09-2.12,1.5-2.12,1.5S227.01,259.71,226.95,256.15z"/>
	</g>
	
		<linearGradient id="SVGID_00000008129222053428854260000002239510384615389631_" gradientUnits="userSpaceOnUse" x1="252.1166" y1="352.7744" x2="295.3813" y2="306.4468">
		<stop  offset="0" style="stop-color:#B44414"/>
		<stop  offset="1" style="stop-color:#EE5402"/>
	</linearGradient>
	<polygon style="fill:url(#SVGID_00000008129222053428854260000002239510384615389631_);" points="247.52,363.19 216.68,329.83 
		224.22,300.54 277.42,300.54 319.07,363.19 	"/>
	<g class="st8">
		<polygon class="st9" points="233.94,303.88 253.49,350.35 307.21,350.35 273.77,304.43 		"/>
	</g>
	<g class="st8">
		<polygon class="st9" points="247.52,363.19 216.68,329.83 221.73,310.19 262.77,363.19 		"/>
	</g>
	<g>
		<path class="st10" d="M314.88,353.39l-59.49-92.87c-0.47-0.74-1.28-1.2-2.16-1.22l-52.09-1.37c-0.97-0.04-1.86,0.47-2.35,1.3
			c-0.49,0.83-0.5,1.85-0.01,2.68l54.59,94.24c0.49,0.85,1.38,1.32,2.3,1.32c0.45,0,0.91-0.11,1.33-0.36
			c1.27-0.73,1.7-2.36,0.97-3.62l-52.21-90.13l45.95,1.21l58.73,91.69c0.79,1.23,2.43,1.59,3.66,0.8
			C315.31,356.27,315.67,354.63,314.88,353.39z"/>
	</g>
	<g>
		<path class="st10" d="M352.59,357.04c-0.33,0-1.61,0-1.93,0c-5.12,0-9.28,4.15-9.28,9.28c0,5.12,4.15,9.28,9.28,9.28
			c0.33,0,1.61,0,1.93,0c5.12,0,9.28-4.15,9.28-9.28C361.87,361.19,357.71,357.04,352.59,357.04z"/>
		<circle class="st10" cx="279.11" cy="362.07" r="14.98"/>
		<g>
			
				<linearGradient id="SVGID_00000176739706033834573650000003955370797868045703_" gradientUnits="userSpaceOnUse" x1="334.045" y1="318.9876" x2="295.105" y2="362.688">
				<stop  offset="0" style="stop-color:#EE021C"/>
				<stop  offset="1" style="stop-color:#B4145C"/>
			</linearGradient>
			<polygon style="fill:url(#SVGID_00000176739706033834573650000003955370797868045703_);" points="247.52,347.09 297.23,347.09 
				361.26,357.44 322.49,357.44 			"/>
			
				<linearGradient id="SVGID_00000016794051921133549960000000952379683320767892_" gradientUnits="userSpaceOnUse" x1="269.8846" y1="376.7013" x2="292.1803" y2="354.614">
				<stop  offset="0" style="stop-color:#4D0628"/>
				<stop  offset="1" style="stop-color:#6F0B37"/>
			</linearGradient>
			<polygon style="fill:url(#SVGID_00000016794051921133549960000000952379683320767892_);" points="247.52,370.94 327.95,370.94 
				322.49,357.44 247.52,347.09 			"/>
			<polygon class="st13" points="366.72,370.94 327.95,370.94 322.49,357.44 361.26,357.44 			"/>
			<g>
				
					<linearGradient id="SVGID_00000008125459815829421300000013477176838800888223_" gradientUnits="userSpaceOnUse" x1="273.4731" y1="365.3753" x2="301.1865" y2="340.3708">
					<stop  offset="0" style="stop-color:#4D0628"/>
					<stop  offset="1" style="stop-color:#6F0B37"/>
				</linearGradient>
				<polygon style="fill:url(#SVGID_00000008125459815829421300000013477176838800888223_);" points="267.22,347.49 319.07,354.82 
					316.1,347.18 267.22,340.43 				"/>
				
					<linearGradient id="SVGID_00000011736309458386560120000008384948348226223036_" gradientUnits="userSpaceOnUse" x1="329.7896" y1="315.1957" x2="290.8496" y2="358.8961">
					<stop  offset="0" style="stop-color:#EE021C"/>
					<stop  offset="1" style="stop-color:#B4145C"/>
				</linearGradient>
				<polygon style="fill:url(#SVGID_00000011736309458386560120000008384948348226223036_);" points="267.22,340.43 299.09,340.43 
					341.38,347.18 316.1,347.18 				"/>
				<polygon class="st13" points="344.4,354.65 319.07,354.82 316.1,347.18 341.38,347.18 				"/>
			</g>
			
				<linearGradient id="SVGID_00000154384649367937462160000004162916392797780355_" gradientUnits="userSpaceOnUse" x1="310.0756" y1="341.2358" x2="314.006" y2="328.1729">
				<stop  offset="0" style="stop-color:#0F1C3D"/>
				<stop  offset="1" style="stop-color:#25356D"/>
			</linearGradient>
			<path style="fill:url(#SVGID_00000154384649367937462160000004162916392797780355_);" d="M293.14,342.03l20.81,3.25l12.26-0.52
				c0,0,1.9-11.68-16.54-12.49C291.74,331.49,293.14,342.03,293.14,342.03z"/>
		</g>
		<g>
			<circle class="st9" cx="249.15" cy="365.33" r="14.98"/>
			<g>
				<circle class="st17" cx="245.64" cy="365.33" r="14.98"/>
			</g>
			
				<linearGradient id="SVGID_00000079472338857085703090000017135861682449914003_" gradientUnits="userSpaceOnUse" x1="244.4489" y1="369.6313" x2="249.4762" y2="351.4841">
				<stop  offset="0" style="stop-color:#0F1C3D"/>
				<stop  offset="1" style="stop-color:#25356D"/>
			</linearGradient>
			<circle style="fill:url(#SVGID_00000079472338857085703090000017135861682449914003_);" cx="245.64" cy="365.33" r="6.31"/>
		</g>
		<g>
			<circle class="st9" cx="311.37" cy="370.38" r="10.96"/>
			<g>
				<circle class="st17" cx="308.02" cy="370.38" r="10.96"/>
			</g>
			
				<linearGradient id="SVGID_00000051374383100119601940000005325295805109987764_" gradientUnits="userSpaceOnUse" x1="307.5111" y1="371.7596" x2="311.5574" y2="360.8468">
				<stop  offset="0" style="stop-color:#0F1C3D"/>
				<stop  offset="1" style="stop-color:#25356D"/>
			</linearGradient>
			<circle style="fill:url(#SVGID_00000051374383100119601940000005325295805109987764_);" cx="308.02" cy="370.38" r="4.62"/>
		</g>
		<path class="st20" d="M316.1,395.53"/>
	</g>
</g>
<g>
	<path class="st20" d="M227.39,274.68"/>
	<g>
		<g>
			<g>
				<g>
					
						<linearGradient id="SVGID_00000067923432520260798810000005770747716093684141_" gradientUnits="userSpaceOnUse" x1="223.9226" y1="211.0021" x2="205.2505" y2="221.2227">
						<stop  offset="0" style="stop-color:#EE021C"/>
						<stop  offset="1" style="stop-color:#B4145C"/>
					</linearGradient>
					<path style="fill:url(#SVGID_00000067923432520260798810000005770747716093684141_);" d="M199.34,181.12
						c3.72,4.67,10.44,13.94,16.58,30.43l25.67,36.8c0,0-2.22,6.24-10.18,7.8c0,0-30.54-28.32-34.03-34.2
						c-2.58-4.35-11.81-23.18-10.6-35.8C187.63,177.3,195.61,176.45,199.34,181.12z"/>
					<path class="st22" d="M249.62,259.21c-0.72-1.21-3.93-2.79-3.93-2.79s-1.7-1.75-3.85-2.59l-1.99-2.6c0,0-2,2.76-5.55,4.07
						l-1.28,1.3l0.43,2.19l3.05,0.08l3.63,1.94c0,0,0.01,2.45,1.87,3.51c0,0,0.36,0.23,0.97,0.27l-0.14-2.9l-0.62-1.74l2.16,1.8
						c0,0-0.97,0.9-0.68,2.23c0,0,0.14,0.85,0.68,0.41c0.27-0.23,0.92-0.7,1.49-1.22c0.42,1.03,1.45,1.42,1.45,1.42l1.06-1.79
						c0.06,1,1.43,1.47,1.43,1.47S250.34,260.42,249.62,259.21z"/>
					<g>
						<path class="st10" d="M149.07,357.44l-7.98,13.48l9.25,7.78h11.17c0,0-0.23-3.65-6.8-3.73l-2.73-3.05l4.5-10.73L149.07,357.44
							z"/>
						<path class="st10" d="M188.1,363.69v14.51h25.92c0,0-2.16-4.34-14.63-4.34c-0.78,0-2.04-10.17-2.04-10.17H188.1z"/>
						
							<linearGradient id="SVGID_00000092450099588048772860000014503560242004092291_" gradientUnits="userSpaceOnUse" x1="175.6664" y1="305.0291" x2="196.3765" y2="187.5054">
							<stop  offset="0" style="stop-color:#0F1C3D"/>
							<stop  offset="1" style="stop-color:#25356D"/>
						</linearGradient>
						<path style="fill:url(#SVGID_00000092450099588048772860000014503560242004092291_);" d="M204.48,235.96h-52.82
							c0,0-1.31,21.31,5.23,32.93c0,0,1.34,23.19,14.22,37.2l0,0.01c0,0-21.63,16.88-26.77,56.87l10.28,5.43l20.64-32.46
							c1.78,10.34,5.17,22.39,11.56,34.09h13.56c0,0-2.71-58.51-2.71-65.09c0-0.72-0.16-1.94-0.43-3.56l1.81-2.85
							c0.88-1.39,1.42-2.96,1.57-4.6C201.34,286.19,203.49,261.56,204.48,235.96z"/>
						<g>
							<g>
								<path class="st17" d="M158.32,234.05l-0.03,2.65c0,0.03-0.02,0.05-0.05,0.05s-0.05-0.02-0.05-0.05c0,0,0,0,0,0
									L158.32,234.05z"/>
								<path class="st17" d="M158.57,242.22l0.71,5.47l0,0.02c0.01,0.11-0.06,0.21-0.18,0.23c-0.11,0.01-0.21-0.06-0.23-0.18
									c0,0,0,0,0-0.01l-0.57-5.51c-0.01-0.07,0.04-0.14,0.12-0.14c0.07-0.01,0.13,0.04,0.14,0.11L158.57,242.22z"/>
								<path class="st17" d="M160.47,253.06c0.48,1.77,1.06,3.51,1.76,5.2c0.07,0.16-0.01,0.35-0.17,0.42s-0.35-0.01-0.42-0.17
									c0,0,0,0,0,0c-0.68-1.73-1.24-3.5-1.7-5.3c-0.04-0.15,0.05-0.29,0.2-0.33C160.29,252.83,160.43,252.92,160.47,253.06z"/>
								<path class="st17" d="M164.73,263.13c0.7,1.12,1.47,2.18,2.32,3.18c0.05,0.06,0.08,0.12,0.09,0.19l0,0.01l0.22,1.51l0,0.01
									c0.03,0.22-0.12,0.43-0.35,0.46c-0.22,0.03-0.43-0.12-0.46-0.35c0,0,0-0.01,0-0.01l-0.2-1.53l0.09,0.21
									c-0.86-1.04-1.64-2.15-2.34-3.31c-0.1-0.17-0.05-0.39,0.12-0.5C164.4,262.91,164.62,262.96,164.73,263.13z"/>
								<path class="st17" d="M168.32,273.45l1.15,5.39l0,0.02c0.05,0.25-0.11,0.5-0.36,0.55s-0.5-0.11-0.55-0.36l0,0l-1.13-5.43
									c-0.05-0.24,0.11-0.48,0.35-0.53c0.24-0.05,0.48,0.1,0.53,0.35L168.32,273.45z"/>
								<path class="st17" d="M170.85,284.17l1.66,5.25l0.01,0.03c0.08,0.26-0.06,0.54-0.32,0.62c-0.26,0.08-0.54-0.06-0.62-0.32
									l0,0l-1.65-5.31c-0.08-0.25,0.06-0.52,0.32-0.6c0.25-0.08,0.52,0.06,0.6,0.31L170.85,284.17z"/>
								<path class="st17" d="M174.51,294.53c0.74,1.67,1.55,3.31,2.47,4.88c0.15,0.25,0.06,0.57-0.19,0.72
									c-0.25,0.15-0.57,0.06-0.72-0.19l0,0c-0.93-1.62-1.75-3.3-2.49-5c-0.11-0.26,0.01-0.56,0.26-0.67
									C174.1,294.16,174.4,294.28,174.51,294.53z"/>
								<path class="st17" d="M180.1,303.88l1.8,1.85l0.02,0.02c0.1,0.1,0.15,0.23,0.15,0.37l0.01,2.63v0.01
									c0,0.28-0.22,0.51-0.5,0.51c-0.28,0-0.51-0.22-0.51-0.5l-0.03-2.66l0.17,0.39l-1.91-1.94c-0.2-0.2-0.2-0.53,0-0.74
									s0.53-0.2,0.74,0l0,0L180.1,303.88z"/>
								<path class="st17" d="M182.24,314.16l0.27,5.41l0,0.01c0.01,0.26-0.19,0.49-0.45,0.5c-0.26,0.01-0.49-0.19-0.5-0.45
									l-0.3-5.43c-0.01-0.27,0.19-0.5,0.46-0.52c0.27-0.02,0.5,0.19,0.52,0.46l0,0L182.24,314.16z"/>
								<path class="st17" d="M182.89,324.98l0.5,5.4l0,0.01c0.02,0.25-0.16,0.46-0.4,0.49c-0.25,0.02-0.46-0.16-0.49-0.4
									l-0.53-5.41c-0.03-0.25,0.16-0.48,0.42-0.51c0.25-0.03,0.48,0.16,0.51,0.42l0,0L182.89,324.98z"/>
								<path class="st17" d="M183.99,335.77l0.73,5.37l0,0.01c0.03,0.2-0.11,0.38-0.31,0.41c-0.2,0.03-0.38-0.11-0.4-0.3
									l-0.82-5.38c-0.03-0.22,0.12-0.43,0.34-0.46c0.22-0.03,0.43,0.12,0.46,0.34c0,0,0,0,0,0L183.99,335.77z"/>
								<path class="st17" d="M185.59,346.49l1.04,5.32l0,0.01c0.03,0.15-0.07,0.29-0.21,0.32c-0.15,0.03-0.29-0.07-0.32-0.21
									l-1.13-5.32c-0.04-0.17,0.07-0.34,0.24-0.37c0.17-0.04,0.34,0.07,0.37,0.24c0,0,0,0,0,0L185.59,346.49z"/>
								<path class="st17" d="M187.84,357.11l1.42,5.24l0,0.01c0.02,0.07-0.02,0.14-0.09,0.16c-0.07,0.02-0.14-0.02-0.16-0.09
									l-1.56-5.21c-0.03-0.11,0.03-0.22,0.14-0.25c0.11-0.03,0.22,0.03,0.25,0.14C187.83,357.1,187.83,357.1,187.84,357.11
									L187.84,357.11z"/>
								<path class="st17" d="M190.92,367.54l0.91,2.49l-1-2.46c-0.01-0.02,0-0.05,0.03-0.06
									C190.89,367.5,190.91,367.51,190.92,367.54C190.92,367.53,190.92,367.54,190.92,367.54z"/>
							</g>
						</g>
						<path class="st24" d="M144.35,362.98l10.28,5.43l20.64-32.46l-4.15-29.83C171.12,306.11,149.49,322.99,144.35,362.98z"/>
						<path class="st24" d="M187.36,259.87l9.88,41.51l1.81-2.85c0.88-1.39,1.42-2.96,1.57-4.6c0.71-7.74,2.86-32.37,3.86-57.97
							C199.9,258.04,187.36,259.87,187.36,259.87z"/>
						
							<linearGradient id="SVGID_00000011735617343459134030000006744509473954366882_" gradientUnits="userSpaceOnUse" x1="193.9087" y1="192.9808" x2="161.0851" y2="235.4354">
							<stop  offset="0" style="stop-color:#EE021C"/>
							<stop  offset="1" style="stop-color:#B4145C"/>
						</linearGradient>
						<path style="fill:url(#SVGID_00000011735617343459134030000006744509473954366882_);" d="M151.66,235.96
							c0,0-6.47-48.78,13.93-60.67c2.38-1.39,8.04-2.93,14.13-2.93c22.02,0,24.98,25.27,25.43,35.55
							c0.65,14.88-0.68,28.04-0.68,28.04s-8.97,1.4-24.14,1.4S151.66,235.96,151.66,235.96z"/>
						
							<linearGradient id="SVGID_00000083055619783309033700000010447191395190341551_" gradientUnits="userSpaceOnUse" x1="164.2383" y1="173.0352" x2="181.8885" y2="195.3575">
							<stop  offset="0" style="stop-color:#0F1C3D"/>
							<stop  offset="1" style="stop-color:#25356D"/>
						</linearGradient>
						<path style="fill:url(#SVGID_00000083055619783309033700000010447191395190341551_);" d="M181.41,198.62
							c0-17.58-10.74-22.76-14.39-24.01c-0.55,0.23-1.04,0.46-1.43,0.69c-0.43,0.25-0.85,0.53-1.26,0.81l1.06,0.23
							c0.14,0.03,13.9,2.93,13.9,22.28c0,0.59,0.47,1.06,1.06,1.06S181.41,199.21,181.41,198.62z"/>
						
							<linearGradient id="SVGID_00000158017828701125270720000017479124797040302494_" gradientUnits="userSpaceOnUse" x1="176.638" y1="163.2308" x2="194.2883" y2="185.5531">
							<stop  offset="0" style="stop-color:#0F1C3D"/>
							<stop  offset="1" style="stop-color:#25356D"/>
						</linearGradient>
						<path style="fill:url(#SVGID_00000158017828701125270720000017479124797040302494_);" d="M191.13,175.3
							c-3.08-1.82-6.83-2.93-11.41-2.93c-0.21,0-0.41,0.01-0.61,0.01l5.05,1.44c0.56,0.14,13.7,3.66,13.7,22.98
							c0,0.59,0.47,1.06,1.06,1.06s1.06-0.47,1.06-1.06C199.99,185.11,195.31,178.7,191.13,175.3z"/>
						
							<linearGradient id="SVGID_00000123441775407026814900000009386644256847018901_" gradientUnits="userSpaceOnUse" x1="166.1964" y1="303.3603" x2="186.9065" y2="185.8366">
							<stop  offset="0" style="stop-color:#0F1C3D"/>
							<stop  offset="1" style="stop-color:#25356D"/>
						</linearGradient>
						<path style="fill:url(#SVGID_00000123441775407026814900000009386644256847018901_);" d="M151.66,235.96
							c0,0,13.53,3.28,28.7,3.28c15.16,0,24.13-3.28,24.13-3.28s1.33-13.16,0.68-28.04c-0.12-2.81-0.44-6.75-1.28-10.97
							c-17.21-7.34-31.1,1.01-31.1,1.01C173.54,235.91,151.66,235.96,151.66,235.96z"/>
					</g>
				</g>
				<path class="st20" d="M188.26,370.03"/>
			</g>
			
				<linearGradient id="SVGID_00000032610898908868579400000016441876079580252840_" gradientUnits="userSpaceOnUse" x1="169.1046" y1="156.8712" x2="198.0173" y2="156.8712">
				<stop  offset="0" style="stop-color:#F8B79B"/>
				<stop  offset="0.9896" style="stop-color:#F8B79B"/>
			</linearGradient>
			<path style="fill:url(#SVGID_00000032610898908868579400000016441876079580252840_);" d="M184.64,135.28
				c-9.09,0-11.98,9.03-12.56,18.27c-1.72,0.53-2.98,2.11-2.98,4c0,1.89,1.25,3.46,2.96,3.99c0.33,6.5,1.34,11.65,1.34,11.65
				s-0.12,5.26,6.28,5.26c6.4,0,5.6-4.78,5.6-4.78v-2.42c0,0,7.39,0.64,9.96-1.77C197.81,167.08,203.27,135.28,184.64,135.28z"/>
			<path class="st30" d="M184.64,135.28c-8.57,0-11.63,8.03-12.44,16.69c2.36,1.75,9.44,5.82,13.43,4.9c4.77-1.1,5.59-1.88,7.51-1.8
				c1.59,0.07,1.27,0.77,4.69,0.81C198.33,146.07,196.09,135.28,184.64,135.28z"/>
			<path class="st6" d="M192.02,149.73c1.23-0.39,3.76,5.26,3.68,9.17c-0.04,1.98-5.59,2.11-5.87-0.01
				C189.36,155.24,190.85,150.1,192.02,149.73z"/>
			<ellipse class="st31" cx="172.44" cy="157.45" rx="1.86" ry="2.38"/>
			<g>
				<g>
					<path class="st6" d="M171.06,155.85c0.15-0.32,0.41-0.59,0.74-0.78c0.34-0.17,0.75-0.23,1.13-0.13
						c0.79,0.19,1.32,0.91,1.53,1.63c0.2,0.73,0.14,1.54-0.23,2.2c-0.34,0.66-1.07,1.19-1.79,1.06c0.7-0.12,1.18-0.66,1.4-1.25
						c0.23-0.59,0.26-1.26,0.08-1.87c-0.16-0.6-0.56-1.15-1.11-1.37C172.24,155.11,171.54,155.34,171.06,155.85z"/>
				</g>
				<g>
					<path class="st6" d="M171.83,157.24c0.01-0.38,0.21-0.79,0.62-1.01c0.43-0.2,0.9-0.13,1.29,0.15c0.37,0.31,0.5,0.76,0.51,1.15
						c0.01,0.4-0.05,0.78-0.22,1.13c-0.06-0.38-0.11-0.74-0.2-1.07c-0.1-0.33-0.23-0.63-0.43-0.78c-0.19-0.16-0.53-0.24-0.79-0.19
						C172.33,156.68,172.06,156.93,171.83,157.24z"/>
				</g>
			</g>
			<path class="st9" d="M184.64,135.28c-9.09,0-16.51,6.65-12.56,18.27c0,0,2.77-0.4,3.48,3.8l0.19,3.41l2.75,0.19
				c0,0,0.68-6.35,0.61-9.29l18.73-0.67C197.11,142.92,193.77,135.28,184.64,135.28z"/>
			<g>
				
					<linearGradient id="SVGID_00000038381438382669422090000004842170427206050726_" gradientUnits="userSpaceOnUse" x1="185.1861" y1="144.2228" x2="190.4895" y2="158.4015">
					<stop  offset="0" style="stop-color:#B44414"/>
					<stop  offset="1" style="stop-color:#EE5402"/>
				</linearGradient>
				<path style="fill:url(#SVGID_00000038381438382669422090000004842170427206050726_);" d="M155.77,149.1
					c1.01,2.3,13.67,2.35,31.03,2.3c9.77-0.03,30.44-1.63,31.03-3.2c0.59-1.57-12.82-8.66-32.23-8.66
					C167.69,139.55,154.76,146.8,155.77,149.1z"/>
				<g class="st8">
					<path class="st9" d="M186.82,143.25c4.27-1.8,9.41-2.33,14.34-2.14c-4.51-0.93-9.76-1.56-15.56-1.56
						c-17.92,0-30.85,7.26-29.84,9.56c0.91,2.06,11.19,2.31,25.82,2.31C180.1,148.22,183.53,144.63,186.82,143.25z"/>
				</g>
				
					<linearGradient id="SVGID_00000049927432863002116550000000355988395663418791_" gradientUnits="userSpaceOnUse" x1="182.1031" y1="139.5294" x2="200.2863" y2="122.7531">
					<stop  offset="0" style="stop-color:#B44414"/>
					<stop  offset="1" style="stop-color:#EE5402"/>
				</linearGradient>
				<path style="fill:url(#SVGID_00000049927432863002116550000000355988395663418791_);" d="M171.4,142.25l0.48-10.68
					c0,0,11.09-5.06,25.08-0.67l1.06,11.36C198.02,142.25,191.29,146.29,171.4,142.25z"/>
				<g class="st8">
					<path class="st9" d="M180.16,129.44c-5.1,0.67-8.28,2.12-8.28,2.12l-0.48,10.68c3.27,0.67,6.18,1.11,8.76,1.39V129.44z"/>
				</g>
				<g class="st8">
					<path class="st9" d="M194.83,143.31c2.22-0.5,3.18-1.06,3.18-1.06l-1.06-11.36c-0.72-0.22-1.43-0.42-2.13-0.6V143.31z"/>
				</g>
				<path class="st9" d="M171.54,139.03l-0.15,3.22c19.9,4.05,26.62,0,26.62,0l-0.29-3.1C196.27,139.83,189.01,142.56,171.54,139.03
					z"/>
			</g>
		</g>
	</g>
	
		<linearGradient id="SVGID_00000106853516192932766950000011970234441883868041_" gradientUnits="userSpaceOnUse" x1="196.4282" y1="214.903" x2="169.6976" y2="231.2166">
		<stop  offset="0" style="stop-color:#EE021C"/>
		<stop  offset="1" style="stop-color:#B4145C"/>
	</linearGradient>
	<path style="fill:url(#SVGID_00000106853516192932766950000011970234441883868041_);" d="M170.55,183.27
		c4.26,4.19,8.95,12.68,13.32,28.83l38.75,37.5c0,0-1.07,4.72-6.19,7.65c-0.87,0.5-1.86,0.95-2.98,1.31c0,0-43.13-24.79-47.3-30.21
		c-3.09-4.01-9.27-25.87-9.58-38.55C156.36,180.92,166.29,179.07,170.55,183.27z"/>
	
		<linearGradient id="SVGID_00000164490255930884247570000017423143119310847130_" gradientUnits="userSpaceOnUse" x1="215.9129" y1="259.326" x2="232.7359" y2="259.326">
		<stop  offset="0" style="stop-color:#F8B79B"/>
		<stop  offset="0.9896" style="stop-color:#F8B79B"/>
	</linearGradient>
	<path style="fill:url(#SVGID_00000164490255930884247570000017423143119310847130_);" d="M228.63,257.93
		c-1.32-2.76-3.79-4.83-6.6-6.7c-0.91,1.54-3.04,4.56-5.59,6.02c-0.16,0.09-0.35,0.18-0.53,0.27c0.74,0.49,1.63,0.85,2.66,0.87
		c0,0,0.45,1.73,0.99,3.13c0.55,1.42,2.29,2.54,2.29,2.54c-1.1,1.73-0.5,2.84,0.35,2.95c0.18,0.02,1.35-1,1.47-1.63
		s-0.37-2.63-0.35-3.17c0.36,0.76,1.04,2.6,1.04,2.6c-0.06,2.45,0.82,2.38,1.69,2.6c0,0,0.57-1.96,0.47-2.89s-0.67-2.07-0.67-2.07
		s1.61,0.76,1.53,2.23c-0.13,2.4,1.78,2.54,1.78,2.54c0.2-0.09,0.25-1.55,0.55-3.24c0.18-1.02-1.62-2.68-2.04-3.38l2.15,1.89
		c0,0,0.42,3.11,2.14,4.08c0.37,0.21,0.82-0.11,0.74-0.53l-0.79-4.52L228.63,257.93z"/>
</g>
</svg>
