<?xml version="1.0" encoding="utf-8"?>
<!-- Generator: Adobe Illustrator 27.6.1, SVG Export Plug-In . SVG Version: 6.00 Build 0)  -->
<svg version="1.1" id="Layer_1" xmlns="http://www.w3.org/2000/svg" xmlns:xlink="http://www.w3.org/1999/xlink" x="0px" y="0px"
	 viewBox="0 0 1815.65 1721.74" style="enable-background:new 0 0 1815.65 1721.74;" xml:space="preserve">
<style type="text/css">
	.st0{fill:#7A5889;}
	.st1{fill:#B892CC;}
	.st2{fill:#452754;}
	.st3{fill:#601F16;}
	.st4{fill:#3D110C;}
	.st5{fill:#D66C03;}
	.st6{fill:#D35905;}
	.st7{fill:#E58D00;}
	.st8{fill:#61436B;}
	.st9{fill:#472E51;}
	.st10{fill:#4A3254;}
	.st11{fill:#67407C;}
	.st12{fill:#483351;}
	.st13{fill:#ED8640;}
	.st14{fill:#46304F;}
	.st15{fill:#4F3659;}
	.st16{fill:#EA2903;}
	.st17{fill:#FFCE00;}
	.st18{fill:#FF5500;}
	.st19{opacity:0.54;fill:#FF4800;}
	.st20{fill:#992A04;}
	.st21{fill:#D35500;}
	.st22{fill:#FF4800;}
	.st23{fill:#F2A100;}
	.st24{fill:#47295B;}
	.st25{fill:#B75B08;}
	.st26{fill:#34334F;}
	.st27{fill:#FF6700;}
	.st28{fill:#910606;}
	.st29{fill:#F99012;}
	.st30{opacity:0.45;fill:#BC1504;}
	.st31{fill:#7C0808;}
	.st32{fill:#211F49;}
	.st33{fill:#2B1638;}
	.st34{fill:#2B2033;}
	.st35{fill:#564263;}
	.st36{fill:#3C2F47;}
	.st37{fill:#176853;}
	.st38{fill:#24AA6A;}
	.st39{fill:#147243;}
	.st40{fill:#072616;}
	.st41{fill:#AA7143;}
	.st42{fill:#3B224C;}
	.st43{fill:#2A0D3D;}
	.st44{fill:#1E1921;}
	.st45{fill:#FFD400;}
	.st46{fill:#FFDF5A;}
	.st47{fill:#77230A;}
	.st48{fill:#562412;}
	.st49{fill:#3C224C;}
	.st50{fill:#CE0F0F;}
	.st51{fill:#930606;}
	.st52{fill:#FF0000;}
	.st53{fill:#F92121;}
	.st54{fill:#840404;}
	.st55{fill:#FF7300;}
	.st56{fill:#631A06;}
	.st57{fill:#51376B;}
	.st58{fill:#8B6DAF;}
	.st59{fill:#4F4F77;}
	.st60{fill:#F28111;}
	.st61{fill:#9589EF;}
	.st62{fill:#5E5AAF;}
	.st63{fill:#FFF800;}
	.st64{fill:#FFB600;}
	.st65{fill:#381D49;}
	.st66{fill:#696793;}
	.st67{fill:#D14600;}
	.st68{fill:#C0ABCE;}
	.st69{fill:#453254;}
	.st70{fill:#B484D3;}
	.st71{fill:#532A72;}
	.st72{opacity:0.31;fill:#FEFDFF;}
	.st73{opacity:0.42;fill:#FFFCCA;}
	.st74{fill:#0B060F;}
	.st75{fill:#0A4217;}
	.st76{fill:#1E7733;}
	.st77{fill:#135124;}
	.st78{fill:#1A632B;}
	.st79{fill:#031907;}
	.st80{fill:#38962A;}
	.st81{fill:#E87F38;}
	.st82{fill:#D35E0F;}
	.st83{fill:#7FBF2B;}
	.st84{fill:#91D147;}
	.st85{fill:#6B310A;}
	.st86{fill:#934E03;}
	.st87{fill:#E2882D;}
	.st88{fill:#FF9E12;}
	.st89{fill:#932702;}
	.st90{fill:#FF7415;}
	.st91{fill:#FFDC7B;}
	.st92{fill:#6D3D0C;}
	.st93{fill:#2E4C10;}
</style>
<g>
	<path class="st0" d="M311.54,660.81L311.54,660.81c-31.42,0-56.89-26.31-56.89-58.77v-80.95h113.77v80.95
		C368.43,634.5,342.96,660.81,311.54,660.81z"/>
	<path class="st1" d="M311.54,657.58L311.54,657.58c-31.42,0-56.89-26.31-56.89-58.77v3.23c0,32.46,25.47,58.77,56.89,58.77l0,0
		c31.42,0,56.88-26.31,56.88-58.77v-3.23C368.43,631.27,342.96,657.58,311.54,657.58z"/>
	<path class="st2" d="M253.84,520.25c0.46,61.74,0.18,28.61,0.82,81.79c0.08-8.05-0.3,29.43,0.81-80.11c5.84,0-29.83,0,112.15,0
		c0.08,8.05-0.3-29.43,0.81,80.11c0.65-54.05,0.35-17.42,0.82-81.79C369.25,520.25,262.37,520.23,253.84,520.25z"/>
	<g>
		<rect x="273.25" y="197.45" class="st3" width="73.23" height="17.38"/>
		<rect x="273.25" y="208.84" class="st4" width="73.23" height="5.99"/>
		<path class="st5" d="M310.42,485L310.42,485c-4.23,0-7.69-3.58-7.69-7.95V304.23c0-4.37,3.46-7.95,7.69-7.95l0,0
			c4.23,0,7.69,3.58,7.69,7.95v172.83C318.11,481.42,314.65,485,310.42,485z"/>
		<path class="st6" d="M313.99,485L313.99,485c-2.27,0-4.13-1.92-4.13-4.26V300.54c0-2.34,1.86-4.26,4.13-4.26l0,0
			c2.27,0,4.13,1.92,4.13,4.26v180.19C318.11,483.08,316.26,485,313.99,485z"/>
		<g>
			<path class="st7" d="M310.42,281.21c-24.44,0-43.58-36.79-43.58-83.76h11.54c0,42.98,16.57,71.85,32.05,71.85
				c15.48,0,32.05-28.87,32.05-71.85h11.54C354.01,244.42,334.86,281.21,310.42,281.21z"/>
		</g>
		<rect x="299.21" y="455.7" class="st8" width="23.56" height="71.02"/>
		<path class="st9" d="M322.77,455.71v71.02h-23.55v-7.45c21.25-5.58,14.88-51.57,12.84-63.57H322.77z"/>
		<rect x="300.33" y="264.96" class="st8" width="20.19" height="44.56"/>
		<rect x="300.33" y="264.96" class="st8" width="20.19" height="44.56"/>
		<polygon class="st10" points="319.96,264.96 319.96,309.02 300.33,309.02 300.33,309.52 320.52,309.52 320.52,264.96 		"/>
		<path class="st8" d="M310.98,557.34L310.98,557.34c-8.98,0-16.26-7.52-16.26-16.8v-20.3h32.53v20.3
			C327.25,549.82,319.97,557.34,310.98,557.34z"/>
		<path class="st9" d="M327.25,520.24c0.44,5.79,0.56,11.99,0.68,17.51c0,3.14,0.71,10.62-6.18,16.14
			c-3.32,2.64-7.18,3.75-10.77,3.46c8.04-0.71,14-6.54,15.28-13.91C326.82,540.76,326.36,531.82,327.25,520.24z"/>
	</g>
</g>
<g>
	<polygon class="st11" points="713.52,610.69 668.75,610.69 674.52,568.75 707.75,568.75 	"/>
	<g>
		<rect x="653.05" y="209.77" class="st3" width="73.23" height="18.18"/>
		<rect x="653.05" y="221.69" class="st4" width="73.23" height="6.26"/>
		<path class="st5" d="M690.22,510.49L690.22,510.49c-4.23,0-7.69-3.58-7.69-7.95V321.07c0-4.37,3.46-7.95,7.69-7.95l0,0
			c4.23,0,7.69,3.58,7.69,7.95v181.47C697.91,506.91,694.45,510.49,690.22,510.49z"/>
		<path class="st6" d="M693.79,510.49L693.79,510.49c-2.27,0-4.13-1.92-4.13-4.26V317.39c0-2.35,1.86-4.26,4.13-4.26l0,0
			c2.27,0,4.13,1.92,4.13,4.26v188.83C697.91,508.57,696.06,510.49,693.79,510.49z"/>
		<g>
			<path class="st7" d="M690.22,297.37c-24.44,0-43.58-38.48-43.58-87.6h11.54c0,44.94,16.57,75.13,32.05,75.13
				c15.48,0,32.05-30.19,32.05-75.13h11.54C733.81,258.89,714.66,297.37,690.22,297.37z"/>
		</g>
		<rect x="679" y="479.84" class="st8" width="23.56" height="74.27"/>
		<path class="st9" d="M702.57,479.85v74.27h-23.55v-7.79c21.25-5.84,14.88-53.93,12.84-66.48H702.57z"/>
		<rect x="680.13" y="280.37" class="st8" width="20.19" height="46.6"/>
		<polygon class="st12" points="680.13,280.37 680.13,282.08 698.67,282.08 698.67,326.98 700.32,326.98 700.32,280.37 		"/>
		<path class="st8" d="M690.78,586.14L690.78,586.14c-8.98,0-16.26-7.52-16.26-16.8v-22h32.53v22
			C707.05,578.62,699.76,586.14,690.78,586.14z"/>
		<path class="st9" d="M707.05,547.34c0.44,6.05,0.56,12.54,0.68,18.31c0,3.29,0.71,11.11-6.18,16.88
			c-3.32,2.76-7.18,3.92-10.77,3.62c8.04-0.74,14-6.84,15.28-14.55C706.62,568.8,706.16,559.46,707.05,547.34z"/>
	</g>
	<path class="st11" d="M775.42,606.72H606.85v11.13h6.41v32c0,3.15,2.47,5.71,5.53,5.71s5.53-2.56,5.53-5.71v-32h13.3v32
		c0,3.15,2.47,5.71,5.53,5.71c3.05,0,5.53-2.56,5.53-5.71v-32h13.3v32c0,3.15,2.48,5.71,5.53,5.71c3.05,0,5.53-2.56,5.53-5.71v-32
		h13.3v32c0,3.15,2.47,5.71,5.53,5.71c3.05,0,5.53-2.56,5.53-5.71v-32h13.3v32c0,3.15,2.47,5.71,5.53,5.71
		c3.05,0,5.53-2.56,5.53-5.71v-32h13.3v32c0,3.15,2.47,5.71,5.53,5.71c3.05,0,5.53-2.56,5.53-5.71v-32h13.3v32
		c0,3.15,2.47,5.71,5.53,5.71c3.05,0,5.53-2.56,5.53-5.71v-32h4.97V606.72z"/>
</g>
<g>
	<path class="st6" d="M458.99,196.43c-1.41,7.81-2.17,16.06-2.17,24.59c0,49.06,24.97,88.82,55.76,88.82
		c30.8,0,55.76-39.77,55.76-88.82c0-8.54-0.78-16.78-2.19-24.59H458.99z"/>
	<path class="st13" d="M512.59,309.84c18.69-0.68,29.35-30.08,33.46-49.33c3.76-16.82,5.59-38.7,3.48-64.09
		C558.25,250.33,539.4,311.2,512.59,309.84z"/>
	<path class="st13" d="M475.63,196.43c-0.45,5.37-0.79,10.75-0.85,16.13c-0.13,5.38-0.05,10.75,0.24,16.11
		c0.56,10.72,1.77,21.41,4.11,31.85c2.23,10.44,5.44,20.74,10.43,30.09c2.48,4.66,5.46,9.1,9.26,12.69
		c3.71,3.63,8.5,6.35,13.78,6.54c-5.29,0.27-10.39-2.32-14.4-5.81c-4.04-3.55-7.23-8-9.92-12.67c-2.73-4.67-4.81-9.7-6.61-14.79
		c-1.79-5.11-3.24-10.34-4.41-15.62c-2.21-10.6-3.45-21.41-3.71-32.23C473.28,217.91,473.91,207.07,475.63,196.43z"/>
	<path class="st13" d="M512.59,309.84c27.59-1.77,36.98-57.97,38.46-88.82C553.05,266.23,535.44,310.93,512.59,309.84z"/>
	<path class="st13" d="M475.63,196.43c-2.72,32.72,1.09,85.98,23.18,106.88c3.71,3.63,8.5,6.35,13.78,6.54
		c-5.29,0.27-10.39-2.32-14.4-5.81C475.11,283.76,470.25,229.81,475.63,196.43z"/>
	<path class="st13" d="M512.59,309.84c19.18-1.33,22.62-77.33,22.4-98.35c0.02-5.02-0.14-10.04-0.3-15.07
		C540.57,247.78,529.53,310.06,512.59,309.84z"/>
	<path class="st13" d="M490.47,196.43c-0.74,23.75,0.24,111.89,22.11,113.42C495.34,310.07,484.72,246.92,490.47,196.43z"/>
	<path class="st13" d="M512.59,309.84c9.54-1.78,9.5-103.14,9.8-113.42C525.59,255.64,519.97,309.14,512.59,309.84z"/>
	<path class="st13" d="M502.79,196.43c0.24,8.23,0.3,111.64,9.8,113.42c-4.63-0.44-7.43-22.07-8.06-26.95
		C500.71,252.68,501.39,222.34,502.79,196.43z"/>
	<g>
		
			<rect x="479.35" y="630.02" transform="matrix(-1 -1.224647e-16 1.224647e-16 -1 1031.9232 1277.4235)" class="st3" width="73.23" height="17.38"/>
		
			<rect x="479.35" y="630.02" transform="matrix(-1 -1.224647e-16 1.224647e-16 -1 1031.9232 1266.032)" class="st4" width="73.23" height="5.99"/>
		<path class="st5" d="M515.4,359.85L515.4,359.85c4.23,0,7.69,3.58,7.69,7.95v172.83c0,4.37-3.46,7.95-7.69,7.95l0,0
			c-4.23,0-7.69-3.58-7.69-7.95V367.8C507.71,363.43,511.17,359.85,515.4,359.85z"/>
		<path class="st6" d="M511.84,359.85L511.84,359.85c2.27,0,4.13,1.92,4.13,4.26v180.2c0,2.34-1.86,4.26-4.13,4.26l0,0
			c-2.27,0-4.13-1.92-4.13-4.26v-180.2C507.71,361.77,509.57,359.85,511.84,359.85z"/>
		<g>
			<path class="st7" d="M515.4,563.64c24.44,0,43.58,36.79,43.58,83.76h-11.54c0-42.98-16.57-71.85-32.05-71.85
				c-15.48,0-32.05,28.87-32.05,71.85h-11.54C471.82,600.43,490.96,563.64,515.4,563.64z"/>
		</g>
		
			<rect x="503.06" y="318.14" transform="matrix(-1 -1.224647e-16 1.224647e-16 -1 1029.6798 707.2889)" class="st8" width="23.55" height="71.02"/>
		<path class="st9" d="M503.06,389.14v-71.02h23.56v7.45c-21.25,5.58-14.88,51.57-12.85,63.57H503.06z"/>
		
			<rect x="505.31" y="535.33" transform="matrix(-1 -1.224647e-16 1.224647e-16 -1 1030.801 1115.2211)" class="st8" width="20.19" height="44.56"/>
		<polygon class="st14" points="525.5,537.09 525.5,535.33 505.31,535.33 505.31,579.89 507.14,579.89 507.14,537.09 		"/>
		<path class="st8" d="M514.84,287.51L514.84,287.51c8.98,0,16.26,7.52,16.26,16.8v20.3h-32.53v-20.3
			C498.58,295.03,505.86,287.51,514.84,287.51z"/>
		<path class="st9" d="M498.58,324.61c-0.44-5.79-0.56-11.99-0.68-17.51c0-3.14-0.71-10.62,6.18-16.14
			c3.31-2.64,7.18-3.75,10.77-3.46c-8.04,0.71-14,6.54-15.28,13.91C499.01,304.09,499.46,313.03,498.58,324.61z"/>
	</g>
</g>
<g>
	<g>
		<polygon class="st11" points="961.3,178.43 955.53,178.43 955.53,222.9 1019.53,304.24 1024.01,300.48 961.3,220.78 		"/>
		<polygon class="st11" points="1033.69,298.44 1022.4,213.33 1022.4,178.43 1016.63,178.43 1016.63,213.53 1029.28,290.55 
			1004.24,213.78 1004.24,178.43 998.47,178.43 998.47,214.8 1024.59,294.77 984.37,218 984.37,178.43 978.6,178.43 978.6,219.64 
			1023.63,303.46 		"/>
	</g>
	<g>
		<polygon class="st11" points="1100.69,178.43 1106.46,178.43 1106.46,222.9 1042.46,304.24 1037.98,300.48 1100.69,220.78 		"/>
		<polygon class="st11" points="1028.3,298.44 1039.59,213.33 1039.59,178.43 1045.36,178.43 1045.36,213.53 1034.91,292.5 
			1057.75,213.78 1057.75,178.43 1063.52,178.43 1063.52,214.8 1038.89,292.16 1077.62,218 1077.62,178.43 1083.39,178.43 
			1083.39,219.64 1039.01,301.19 		"/>
	</g>
	<g>
		
			<rect x="995.81" y="629.91" transform="matrix(-1 -1.224647e-16 1.224647e-16 -1 2064.8428 1277.2006)" class="st3" width="73.23" height="17.38"/>
		
			<rect x="995.81" y="629.91" transform="matrix(-1 -1.224647e-16 1.224647e-16 -1 2064.8428 1265.8088)" class="st4" width="73.23" height="5.99"/>
		<path class="st5" d="M1031.86,359.74L1031.86,359.74c4.23,0,7.69,3.58,7.69,7.95v172.83c0,4.37-3.46,7.95-7.69,7.95l0,0
			c-4.23,0-7.69-3.58-7.69-7.95V367.69C1024.17,363.32,1027.63,359.74,1031.86,359.74z"/>
		<path class="st6" d="M1028.3,359.74L1028.3,359.74c2.27,0,4.13,1.92,4.13,4.26V544.2c0,2.34-1.86,4.26-4.13,4.26l0,0
			c-2.27,0-4.13-1.92-4.13-4.26V364C1024.17,361.66,1026.03,359.74,1028.3,359.74z"/>
		<g>
			<path class="st7" d="M1031.86,563.53c24.44,0,43.58,36.79,43.58,83.76h-11.54c0-42.98-16.57-71.85-32.05-71.85
				c-15.48,0-32.05,28.87-32.05,71.85h-11.54C988.28,600.32,1007.42,563.53,1031.86,563.53z"/>
		</g>
		
			<rect x="1019.52" y="318.02" transform="matrix(-1 -1.224647e-16 1.224647e-16 -1 2062.6021 707.066)" class="st8" width="23.55" height="71.02"/>
		<path class="st9" d="M1019.52,389.03v-71.02h23.56v7.45c-21.25,5.58-14.88,51.57-12.85,63.57H1019.52z"/>
		
			<rect x="1021.77" y="535.22" transform="matrix(-1 -1.224647e-16 1.224647e-16 -1 2063.7236 1114.9982)" class="st8" width="20.19" height="44.56"/>
		<polygon class="st15" points="1023.05,536.54 1041.96,536.54 1041.96,535.22 1021.77,535.22 1021.77,579.78 1023.05,579.78 		"/>
		<path class="st8" d="M1031.3,287.4L1031.3,287.4c8.98,0,16.27,7.52,16.27,16.8v20.3h-32.53v-20.3
			C1015.04,294.92,1022.32,287.4,1031.3,287.4z"/>
		<path class="st9" d="M1015.04,324.5c-0.44-5.79-0.56-11.99-0.68-17.51c0-3.14-0.71-10.62,6.18-16.14
			c3.31-2.64,7.18-3.75,10.77-3.46c-8.04,0.71-14,6.54-15.28,13.91C1015.47,303.98,1015.92,312.92,1015.04,324.5z"/>
	</g>
	<rect x="968.59" y="244.74" class="st11" width="123.78" height="2.23"/>
</g>
<path class="st16" d="M1480.24,619.95c-11.5,8.14-26.75,28.74-33.06,37.68l-2.31-1.75l28.98-40.35L1480.24,619.95z"/>
<g>
	<path class="st17" d="M1256.29,473.87l-2.08,21.02h-35.57v-6.95c0,0-11.3-2.48-20.43,1.49c-9.13,3.97-19.95,5.46-19.95,5.46v-4.97
		h-11.3v4.97h-12.5v-4.97h-13.7v5.71h-14.66v-5.71l-11.78-0.25v4.47l-10.57-2.23v-5.71l-7.45-2.84v4.83c0,0-8.57-4.22-11.62-11.42
		c-3.04-7.2,0.41-26.6,0.41-26.6l166,16.42L1256.29,473.87z"/>
	<path class="st18" d="M1260.13,281.95l-14.08,126.26c0,0,10.71,33.11,10.9,50.99c0.15,13.96-0.64,14.57-0.64,14.57
		s-58.33,0.66-71.14,5.3c-10.75,3.89-58.45,8.24-85.67-2.95c-9.85-4.05-16.14-14.48-14.52-25.31c0.72-4.84,3-8.83,8.53-8.83
		c14.1,0,50.64,3.97,58.33-3.97c7.69-7.95,19.23-30.46,14.74-41.72c-4.49-11.26-33.94-114.12-33.94-114.12L1260.13,281.95z"/>
	<path class="st19" d="M1256.94,459.2c0.16,13.96-0.63,14.57-0.63,14.57s-18.66,0.22-37.18,1.23c2.39-3.74,6.28-11.78,6.28-24.84
		c0-18.91-6.2-44.42-6.2-44.42c3.11-11.92-13.07-99.97-17.54-123.75l58.46-0.04l-14.08,126.26
		C1246.04,408.22,1256.76,441.32,1256.94,459.2z"/>
	<path class="st20" d="M1246.91,408.23c4.12-36.55,8.99-78.32,13.22-126.21c-5.58,41.37-10.28,83.15-14.95,126.39
		c6.46,21.22,12.12,39.37,11.54,61.32c-0.07,1.38-0.02,2.81-0.42,4.14c0.93-2.63,1.01-14.07,0.9-16.71
		C1256.73,443.28,1251.07,421.56,1246.91,408.23z"/>
	<path class="st21" d="M1260.13,281.9c0,1.47-2.69,2.81-7.44,4.02c-10.71,2.74-31.92,4.61-56.32,4.61
		c-22.77,0-42.76-1.63-54.03-4.07c-6.17-1.33-9.75-2.92-9.75-4.61c0-4.81,28.56-8.7,63.78-8.7
		C1231.58,273.15,1260.13,277.09,1260.13,281.9z"/>
	<g>
		<path class="st21" d="M1252.69,285.92c-10.71,2.74-31.92,4.61-56.32,4.61c-22.77,0-42.76-1.63-54.03-4.07
			c10.73-2.76,31.9-4.61,56.26-4.61C1221.41,281.85,1241.42,283.48,1252.69,285.92z"/>
	</g>
</g>
<g>
	<polygon class="st22" points="1447,432.66 1431.62,367.32 1374.87,367.32 1362.56,432.66 	"/>
	<ellipse class="st21" cx="1404.78" cy="432.66" rx="42.22" ry="2.3"/>
	<path class="st23" d="M1365.3,231.35c0-5.3,6.24-9.45,11.62-6c3.78,2.42,11.62,29.32,11.62,29.32s-5.47-45.56-2.39-48.74
		c3.08-3.18,4.87-4.91,9.91-2.12c4.22,2.33,8.2,49.8,8.2,49.8s-0.17-46.09,3.08-49.45c3.25-3.36,7.52-4.94,12.31,0
		c4.79,4.94,0,49.09,0,49.09s4.45-38.5,6.5-43.44c2.05-4.94,6.66-5.83,12.31,0c5.64,5.83-1.03,38.5-3.08,48.39
		c-2.04,9.83-3.74,107.86-3.76,109.1c0,0.01,0.02,0.02,0.02,0.03c0,1.27-12.81,2.3-28.6,2.3c-15.8,0-28.43-2.17-28.17-2.3
		l-1.71-97.13C1373.16,270.2,1365.3,236.64,1365.3,231.35z"/>
</g>
<g>
	<path class="st11" d="M1155.36,873.96l-11.6-43.21l11.6-43.21c-73.87-11.01-107.5,38.43-108,43.21
		C1048.1,836.62,1081.49,884.97,1155.36,873.96z"/>
	<path class="st24" d="M1155.37,873.97c-73.88,11.01-107.28-37.35-108.01-43.21c0.19-1.91,5.61-10.85,16.71-20.24
		c-2,8.4-2,17.92,4.63,24.77c12.09,12.49,61.13,9.99,78.61,8.68L1155.37,873.97z"/>
	<g>
		<path class="st5" d="M1189.93,837.18v-10.83c0-1.91,1.56-3.47,3.47-3.47h126.24c1.91,0,3.47,1.56,3.47,3.47v10.83
			c0,1.91-1.56,3.47-3.47,3.47h-126.24C1191.5,840.65,1189.93,839.09,1189.93,837.18z"/>
		<path class="st5" d="M1189.93,837.18v-10.83c0-1.91,1.56-3.47,3.47-3.47h126.24c1.91,0,3.47,1.56,3.47,3.47v10.83
			c0,1.91-1.56,3.47-3.47,3.47h-126.24C1191.5,840.65,1189.93,839.09,1189.93,837.18z"/>
		<path class="st25" d="M1323.12,833.64v-3.74c0-0.83-0.17-1.63-0.43-2.37c-0.95,2.7-3.43,4.65-6.36,4.65h-119.6
			c-2.93,0-5.41-1.95-6.36-4.65c-0.26,0.74-0.43,1.54-0.43,2.37v3.74c0,3.86,3.06,7.02,6.79,7.02h119.6
			C1320.06,840.65,1323.12,837.5,1323.12,833.64z"/>
		
			<rect x="1176.67" y="806.71" transform="matrix(-1.836970e-16 1 -1 -1.836970e-16 2017.3191 -353.7849)" class="st8" width="17.77" height="50.12"/>
		<path class="st9" d="M1210.61,840.66h-50.12v-17.77h5.26c3.94,16.03,36.39,11.23,44.86,9.69V840.66z"/>
		<path class="st8" d="M1138.88,832.17L1138.88,832.17c0-6.47,5.08-11.71,11.34-11.71h14.85v23.43h-14.85
			C1143.96,843.89,1138.88,838.64,1138.88,832.17z"/>
		<path class="st9" d="M1165.07,843.89c-4.08,0.32-8.46,0.4-12.36,0.49c-2.22,0-7.49,0.51-11.39-4.45
			c-1.86-2.39-2.64-5.17-2.44-7.75c0.5,5.79,4.62,10.08,9.82,11C1150.58,843.58,1156.89,843.25,1165.07,843.89z"/>
	</g>
</g>
<g>
	<path class="st11" d="M1101.45,1420.08c0-5.53-4.34-10.02-9.69-10.02h-44.07c-5.35,0-9.7,4.48-9.7,10.02v74.74
		c0,7.86,6.17,14.24,13.78,14.24v-82.11h11.06v74.99c0,3.93,6.89,7.12,6.89,7.12s6.89-3.19,6.89-7.12v-74.99h11.06v82.11
		c7.61,0,13.78-6.37,13.78-14.24V1420.08z"/>
	<g>
		<path class="st5" d="M1074.85,1370.83h-10.26c-1.91,0-3.47-1.56-3.47-3.47v-130.65c0-1.91,1.56-3.47,3.47-3.47h10.26
			c1.91,0,3.47,1.56,3.47,3.47v130.65C1078.32,1369.27,1076.76,1370.83,1074.85,1370.83z"/>
		<path class="st5" d="M1074.85,1370.83h-10.26c-1.91,0-3.47-1.56-3.47-3.47v-130.65c0-1.91,1.56-3.47,3.47-3.47h10.26
			c1.91,0,3.47,1.56,3.47,3.47v130.65C1078.32,1369.27,1076.76,1370.83,1074.85,1370.83z"/>
		<path class="st25" d="M1071.53,1233.24h-3.62c-0.81,0-1.57,0.17-2.29,0.44c2.61,0.98,4.5,3.55,4.5,6.57v123.56
			c0,3.02-1.89,5.59-4.5,6.57c0.72,0.27,1.49,0.44,2.29,0.44h3.62c3.73,0,6.79-3.16,6.79-7.02v-123.56
			C1078.32,1236.39,1075.26,1233.24,1071.53,1233.24z"/>
		<rect x="1061.12" y="1349.46" class="st8" width="17.2" height="51.78"/>
		<path class="st9" d="M1078.32,1349.47v51.78h-17.21v-5.43c15.52-4.07,10.87-37.6,9.38-46.35H1078.32z"/>
		<path class="st8" d="M1070.11,1423.57L1070.11,1423.57c-6.26,0-11.34-5.24-11.34-11.71v-15.34h22.68v15.34
			C1081.45,1418.33,1076.37,1423.57,1070.11,1423.57z"/>
		<path class="st9" d="M1081.45,1396.52c0.31,4.22,0.39,8.74,0.47,12.76c0,2.29,0.49,7.74-4.31,11.77c-2.31,1.92-5,2.73-7.51,2.52
			c5.6-0.52,9.76-4.77,10.65-10.14C1081.15,1411.48,1080.83,1404.97,1081.45,1396.52z"/>
	</g>
</g>
<g>
	<path class="st11" d="M983.77,1464.65c0-7.01-5.5-12.69-12.29-12.69H858.09c-6.79,0-12.29,5.68-12.29,12.69v20.29v3.06v29.3
		c0,2.83,2.22,5.13,4.97,5.13c2.74,0,4.97-2.3,4.97-5.13V1488h8.36v29.3c0,2.83,2.22,5.13,4.97,5.13c2.74,0,4.97-2.3,4.97-5.13V1488
		h8.36v29.3c0,2.83,2.22,5.13,4.97,5.13c2.74,0,4.97-2.3,4.97-5.13V1488h8.36v29.3c0,2.83,2.22,5.13,4.97,5.13
		c2.74,0,4.97-2.3,4.97-5.13V1488h8.35v29.3c0,2.83,2.22,5.13,4.97,5.13c2.74,0,4.97-2.3,4.97-5.13V1488h8.36v29.3
		c0,2.83,2.22,5.13,4.97,5.13c2.74,0,4.97-2.3,4.97-5.13V1488h8.36v29.3c0,2.83,2.22,5.13,4.97,5.13c2.74,0,4.97-2.3,4.97-5.13V1488
		h8.36v29.3c0,2.83,2.22,5.13,4.97,5.13c2.74,0,4.97-2.3,4.97-5.13V1464.65z"/>
	<path class="st11" d="M983.77,1464.65c0-7.01-5.5-12.69-12.29-12.69H858.09c-6.79,0-12.29,5.68-12.29,12.69
		c0,19.22,0,33.33,0,52.65c0,2.83,2.22,5.13,4.97,5.13c2.74,0,4.97-2.3,4.97-5.13V1488h8.36v29.3c0,2.83,2.22,5.13,4.97,5.13
		c2.74,0,4.97-2.3,4.97-5.13V1488h8.36v29.3c0,2.83,2.22,5.13,4.97,5.13c2.74,0,4.97-2.3,4.97-5.13V1488h8.36v29.3
		c0,2.83,2.22,5.13,4.97,5.13c2.74,0,4.97-2.3,4.97-5.13V1488h8.35v29.3c0,2.83,2.22,5.13,4.97,5.13c2.74,0,4.97-2.3,4.97-5.13V1488
		h8.36v29.3c0,2.83,2.22,5.13,4.97,5.13c2.74,0,4.97-2.3,4.97-5.13V1488h8.36v29.3c0,2.83,2.22,5.13,4.97,5.13
		c2.74,0,4.97-2.3,4.97-5.13V1488h8.36v29.3c0,2.83,2.22,5.13,4.97,5.13c2.74,0,4.97-2.3,4.97-5.13
		C983.77,1498.04,983.77,1483.91,983.77,1464.65z"/>
	<g>
		<path class="st5" d="M917.67,1408.61h-10.26c-1.91,0-3.47-1.56-3.47-3.47v-130.65c0-1.91,1.56-3.47,3.47-3.47h10.26
			c1.91,0,3.47,1.56,3.47,3.47v130.65C921.14,1407.05,919.58,1408.61,917.67,1408.61z"/>
		<path class="st5" d="M917.67,1408.61h-10.26c-1.91,0-3.47-1.56-3.47-3.47v-130.65c0-1.91,1.56-3.47,3.47-3.47h10.26
			c1.91,0,3.47,1.56,3.47,3.47v130.65C921.14,1407.05,919.58,1408.61,917.67,1408.61z"/>
		<path class="st25" d="M914.35,1271.02h-3.62c-0.81,0-1.57,0.17-2.29,0.44c2.61,0.98,4.49,3.55,4.49,6.57v123.56
			c0,3.02-1.89,5.59-4.49,6.57c0.72,0.27,1.49,0.44,2.29,0.44h3.62c3.73,0,6.79-3.16,6.79-7.02v-123.56
			C921.14,1274.18,918.08,1271.02,914.35,1271.02z"/>
		<rect x="903.94" y="1387.25" class="st8" width="17.2" height="51.78"/>
		<path class="st9" d="M921.14,1387.26v51.78h-17.2v-5.43c15.52-4.07,10.87-37.6,9.38-46.35H921.14z"/>
		<path class="st8" d="M912.93,1461.36L912.93,1461.36c-6.26,0-11.34-5.25-11.34-11.71v-15.34h22.68v15.34
			C924.27,1456.11,919.19,1461.36,912.93,1461.36z"/>
		<path class="st9" d="M924.27,1434.3c0.31,4.22,0.39,8.74,0.48,12.76c0,2.29,0.49,7.74-4.31,11.77c-2.31,1.93-5.01,2.73-7.51,2.52
			c5.6-0.52,9.76-4.77,10.65-10.14C923.97,1449.27,923.65,1442.75,924.27,1434.3z"/>
	</g>
</g>
<g>
	<ellipse class="st26" cx="283.77" cy="919.98" rx="75.98" ry="78.5"/>
	<path class="st27" d="M333.92,919.97c0,28.64-22.45,51.83-50.15,51.83c-20.95,0-38.9-13.26-46.39-32.12
		c-2.44-6.07-3.76-12.72-3.76-19.71c0-25.83,18.3-47.25,42.23-51.16c2.57-0.43,5.22-0.65,7.92-0.65
		C311.47,868.16,333.92,891.36,333.92,919.97z"/>
	<path class="st27" d="M333.92,919.97c0,28.64-22.45,51.83-50.15,51.83c-20.95,0-38.9-13.26-46.39-32.12
		c28.15,0.4,63.77-3.73,63.77-27.17c0-20.14-12.9-34.5-25.3-43.7c2.57-0.43,5.22-0.65,7.92-0.65
		C311.47,868.16,333.92,891.36,333.92,919.97z"/>
	<polygon class="st28" points="507.64,867.78 499.31,868.54 510.06,994.16 487.9,994.16 367.91,858.96 361.74,864.8 484.22,1002.8 
		519.19,1002.8 	"/>
	<polygon class="st29" points="601.72,812.21 527.86,884.18 382.61,876.14 365.53,875.19 243.51,777.36 512.39,803.52 	"/>
	<path class="st30" d="M601.72,812.21l-73.86,71.97l-145.25-8.05c103.8-20.97,127.89-51.05,129.78-72.62L601.72,812.21z"/>
	<g>
		<path class="st31" d="M176.8,925.67L176.8,925.67C176.8,925.67,176.8,925.67,176.8,925.67C176.8,925.67,176.8,925.67,176.8,925.67
			z"/>
		<path class="st31" d="M781.99,799.99c-18.09,1.19-132.19,8.7-149.87,9.86c-9.7,6.54-90.07,60.7-101.97,68.72
			c-1.62-0.31-18.71-0.99-186.4-8.9c-19.98,15.76-51.08,40.29-62.59,49.36c-9.42-0.55-103.52-6.04-103.83-6.05
			c-8.13-0.36-8.64,12.34-0.52,12.7c4.21,0.18,99.48,4.34,107.87,4.7c14.05-11.83,45.05-37.93,61.69-51.95l0,0
			c22.56,1.28,163.35,9.27,185.96,10.55c10.32-6.11,89.12-52.79,104.96-62.17l145.77-9.59C794.1,816.51,793.02,799.27,781.99,799.99
			z"/>
		<path class="st31" d="M176.79,925.67C176.6,925.66,176.61,925.66,176.79,925.67L176.79,925.67z"/>
	</g>
	<g>
		<path class="st31" d="M176.8,925.67L176.8,925.67C176.8,925.67,176.8,925.67,176.8,925.67C176.8,925.67,176.8,925.67,176.8,925.67
			z"/>
		<path class="st32" d="M780.99,797.68c-10.33,0.64-50.93,5.73-88.03,8.17l0.86,17.1l89.23-3.58
			C798.13,817.24,797.01,796.69,780.99,797.68z"/>
		<path class="st31" d="M176.79,925.67C176.6,925.66,176.61,925.66,176.79,925.67L176.79,925.67z"/>
	</g>
	<path class="st26" d="M295.15,919.98c0,6.49-5.1,11.76-11.38,11.76c-6.29,0-11.38-5.26-11.38-11.76s5.09-11.76,11.38-11.76
		C290.06,908.22,295.15,913.49,295.15,919.98z"/>
</g>
<g>
	<g>
		<path class="st33" d="M525.68,1334.48c-5.21-9.19-232.07-164.49-266.74-182.61c-9.23-4.83-18.68-11.22-27.25-17.7
			c-1.44,15.87-9.12,104.47-21.96,106.84c-13.18,2.36-20.27-59.31-11.4-133.73l3.4-3.91l0,0c0.19,0.18,11.54,11.35,26.78,23.39
			c0.19-2.34,0.38-4.67,0.55-6.99l3.83,0.31c-0.01,0.1-0.28,3.66-0.79,9.48c8.91,6.83,18.87,13.69,28.58,18.77
			c22.51,11.76,268.72,175.75,268.72,185.54h-3.85C525.55,1334.24,525.68,1334.47,525.68,1334.48L525.68,1334.48z M201.87,1108.93
			c-9.74,93.28,3.36,128.98,7.18,128.16c6.45-1.19,14.55-53.72,19.05-105.67C216.25,1122.21,206.47,1113.26,201.87,1108.93z"/>
	</g>
	<path class="st34" d="M552.07,1314.97h-20.61v-10.64c0-5.88,4.61-10.65,10.3-10.65l0,0c5.69,0,10.3,4.77,10.3,10.65V1314.97z"/>
	<path class="st35" d="M636.5,1333.85c0,5.4-2.12,10.29-5.56,13.85c-3.42,3.54-8.15,5.72-13.38,5.72h-32.57
		c-10.48,0-18.96-8.76-18.96-19.57c0-5.4,2.12-10.29,5.56-13.85c3.42-3.54,8.17-5.72,13.4-5.72h32.57c7.94,0,14.73,5.05,17.56,12.2
		C636,1328.75,636.5,1331.25,636.5,1333.85z"/>
	<path class="st36" d="M636.5,1333.85c0,5.4-2.12,10.29-5.56,13.85c-3.42,3.54-8.15,5.72-13.38,5.72h-32.57
		c-10.48,0-18.96-8.76-18.96-19.57c0-5.4,2.12-10.29,5.56-13.85c3.42-3.54,8.17-5.72,13.4-5.72h1.48c3.08,4.05,9,9.53,19.06,11.32
		c10,1.79,21.77,1.43,29.59,0.87C636,1328.75,636.5,1331.25,636.5,1333.85z"/>
	<rect x="552.07" y="1371.29" class="st37" width="111.69" height="82.42"/>
	<polygon class="st34" points="641.82,1434.9 636.5,1425.09 704.31,1425.09 688.01,1448.06 	"/>
	<polygon class="st38" points="750.18,1450.96 750.18,1494.22 496.9,1494.22 496.9,1395.32 505.63,1397.24 	"/>
	<path class="st39" d="M750.18,1451.4v42.83H496.9v-98.91l8.73,1.93c39.07,20,107.49,50.14,158.14,61.05
		C712.4,1468.76,738.43,1458.88,750.18,1451.4z"/>
	<g>
		<rect x="496.9" y="1493.23" class="st40" width="253.28" height="1.99"/>
	</g>
	<path class="st38" d="M544.76,1388.46v-54.26h94.07c22.21,0,40.22,18.6,40.22,41.55v16.14L544.76,1388.46z"/>
	<path class="st35" d="M704.31,1425.09H636.5v-53.23c0-4.87,3.95-8.82,8.82-8.82h50.17c4.87,0,8.82,3.95,8.82,8.82V1425.09z"/>
	<path class="st41" d="M522.15,1412.5v62.5c0,0-58.38-3.06-116.53-17.96c-55.42-14.16-110.58-39.1-114.81-82.32
		c-3.71-38.1-4.25-68.44-3.62-90.66c0.81-29.46,3.62-44.64,3.62-44.64L522.15,1412.5z"/>
	<path class="st41" d="M522.15,1412.5v62.5c0,0-58.38-3.06-116.53-17.96c-1.04-13.23-2.96-30.93-6.48-52.8
		c-5.71-35.52-69.8-88.66-111.95-120.18c0.81-29.46,3.62-44.64,3.62-44.64L522.15,1412.5z"/>
	<g>
		<path class="st42" d="M534.78,1430.74c-1.58,0-3.18-0.5-4.55-1.55l-255.95-194.37c-3.42-2.6-4.16-7.57-1.64-11.11
			c2.51-3.54,7.33-4.3,10.75-1.7l255.95,194.37c3.42,2.6,4.16,7.57,1.64,11.11C539.48,1429.62,537.15,1430.74,534.78,1430.74z"/>
	</g>
	<path class="st35" d="M560.66,1320.11v82.92l-15.34-9.63l-29.15-18.3v-54.99c0-8.28,6.52-15.02,14.54-15.02h15.42
		c0.71,0,1.4,0.06,2.1,0.18C555.24,1306.3,560.66,1312.56,560.66,1320.11z"/>
	<path class="st36" d="M540.63,1323.78c0,16.17,2.96,50.8,4.69,69.61l-29.15-18.3v-54.99c0-8.28,6.52-15.02,14.54-15.02h15.42
		c0.71,0,1.4,0.06,2.1,0.18C544.24,1308.07,540.63,1313.47,540.63,1323.78z"/>
	<g>
		<ellipse class="st43" cx="482.71" cy="1439.74" rx="63.82" ry="65.93"/>
		<path class="st27" d="M527.47,1439.73c0,12.22-4.59,23.34-12.11,31.61c-8.13,9.02-19.75,14.64-32.65,14.64
			c-24.73,0-44.76-20.7-44.76-46.25c0-18.04,10.02-33.69,24.63-41.3c6.04-3.16,12.88-4.95,20.13-4.95
			C507.44,1393.49,527.47,1414.21,527.47,1439.73z"/>
		<path class="st22" d="M515.36,1471.34c-8.13,9.02-19.75,14.64-32.65,14.64c-24.73,0-44.76-20.7-44.76-46.25
			c0-18.04,10.02-33.69,24.63-41.3c-4.15,17.64-6.56,47.22,17.33,63.97C491.34,1470.41,503.77,1472.37,515.36,1471.34z"/>
		<ellipse class="st43" cx="482.71" cy="1439.74" rx="21.94" ry="22.66"/>
	</g>
	<g>
		<path class="st43" d="M781.43,1470.88c0,20.23-15.87,36.63-35.46,36.63c-19.58,0-35.46-16.4-35.46-36.63
			c0-20.23,15.87-36.63,35.46-36.63C765.56,1434.24,781.43,1450.64,781.43,1470.88z"/>
		<path class="st27" d="M770.84,1470.88c0,14.19-11.13,25.69-24.87,25.69c-13.74,0-24.87-11.5-24.87-25.69
			c0-14.19,11.13-25.69,24.87-25.69C759.71,1445.18,770.84,1456.68,770.84,1470.88z"/>
		<path class="st43" d="M758.16,1470.88c0,6.95-5.46,12.59-12.19,12.59c-6.73,0-12.19-5.64-12.19-12.59
			c0-6.95,5.46-12.59,12.19-12.59C752.71,1458.28,758.16,1463.92,758.16,1470.88z"/>
	</g>
	<polygon class="st44" points="649.11,1422.8 642.86,1422.8 643.82,1373.8 648.15,1373.8 	"/>
	<polygon class="st44" points="651.59,1373.8 657.84,1373.8 656.88,1422.8 652.56,1422.8 	"/>
	<polygon class="st44" points="665.45,1422.8 659.2,1422.8 660.17,1373.8 664.49,1373.8 	"/>
	<polygon class="st44" points="667.94,1373.8 674.19,1373.8 673.23,1422.8 668.9,1422.8 	"/>
	<polygon class="st44" points="682.4,1422.8 676.15,1422.8 677.11,1373.8 681.44,1373.8 	"/>
	<polygon class="st44" points="698.74,1422.8 692.49,1422.8 693.46,1373.8 697.78,1373.8 	"/>
	<polygon class="st44" points="684.88,1373.8 691.13,1373.8 690.17,1422.8 685.84,1422.8 	"/>
	<g>
		<path class="st42" d="M580.66,1435.55c-1.74,0-3.49-0.61-4.93-1.85l-377.4-326.42l61.22-78.87c2.66-3.42,7.5-3.98,10.81-1.23
			c3.31,2.74,3.85,7.75,1.19,11.17l-51.8,66.74l365.85,316.43c3.26,2.82,3.69,7.83,0.96,11.19
			C585.04,1434.58,582.85,1435.55,580.66,1435.55z"/>
	</g>
	<path class="st37" d="M592.71,1427.74c0,7.5-5.88,13.58-13.14,13.58c-7.26,0-13.14-6.08-13.14-13.58c0-7.5,5.88-13.57,13.14-13.57
		C586.82,1414.17,592.71,1420.25,592.71,1427.74z"/>
	<path class="st38" d="M588.5,1427.74c0,5.1-4,9.23-8.93,9.23c-4.93,0-8.93-4.13-8.93-9.23c0-5.1,4-9.23,8.93-9.23
		C584.5,1418.51,588.5,1422.64,588.5,1427.74z"/>
</g>
<g>
	<path class="st45" d="M1494.01,280.67c-0.36-3.65-2.93-6.92-6.61-7.26c-6.35-0.59-8.44,6.74-10.27,11.55
		c-2.07,5.44-6.06,18.21-6.3,19.02c1.21-10.06,3.6-33.73,3.5-43.1c-0.1-9.41-7.94-10.6-10.81-7.79c-2.09,2.05-2.58,5.45-3.16,8.22
		c-2.51,11.99-5.26,40.88-5.26,41.62c0.03-8.97-0.1-17.96-0.44-26.92c-0.17-4.59-0.39-9.18-0.82-13.75
		c-0.39-4.03-0.6-8.73-4.48-10.92c-3.6-2.03-8.54-0.45-10.37,3.36c-3.19,6.62-0.1,39.97,0.68,47.37
		c-1.01-10.22-3.63-28.68-4.83-35.66c-0.49-2.84-0.8-6.28-2.35-8.72c-2.13-3.35-6.32-2.81-9.15-0.77c-3.44,2.48-4.43,6.49-4.6,10.61
		c-0.44,11.12,2.99,29.06,5.26,39.99c2.04,9.83,3.74,107.86,3.74,109.13c0,1.27,12.8,2.3,28.6,2.3c15.8,0,28.6-1.03,28.6-2.3
		c0-0.13,1.28-97.13,1.28-97.13c2.02-8.63,3.97-17.3,5.74-25.99C1492.69,289.84,1494.43,284.91,1494.01,280.67z"/>
	<path class="st46" d="M1464.5,319.96c0,0-25.37,19.89-31.54,36.03c-6.16,16.14-2.56,40,11.79,37.61
		c14.36-2.38,15.38-28.61,15.38-33.64c0-5.03,15.9-25.16,15.9-34.44C1476.04,316.25,1464.5,319.96,1464.5,319.96z"/>
	<path class="st47" d="M1434.07,388.67c5.77,7.93,19.92,8.01,24.05-16.23c2.86-16.5-2.38-9.08,7.36-25.42
		c5.44-9.03,16.15-25.87,5.38-27.41c-2.08-0.36-4.27-0.13-6.37,0.35c4.53-1.51,10.42-1.61,11.65,3.09
		c1.94,6.29-4.6,16.95-9.17,24.91c-9.27,16.03-4.03,8.19-7.14,24.81c-3.85,20.19-14.3,23.68-21.02,20.44
		C1436.79,392.25,1435.19,390.57,1434.07,388.67z"/>
	<path class="st22" d="M1484.93,416.64h-57.18c0,0-15.38,65.53-15.38,65.62c0,1.27,18.9,2.3,42.22,2.3c23.32,0,42.22-1.03,42.22-2.3
		C1496.81,482.17,1484.93,416.64,1484.93,416.64z"/>
</g>
<g>
	<path class="st45" d="M1494.01,280.67c-0.36-3.65-2.93-6.92-6.61-7.26c-6.35-0.59-8.44,6.74-10.27,11.55
		c-2.07,5.44-6.06,18.21-6.3,19.02c1.21-10.06,3.6-33.73,3.5-43.1c-0.1-9.41-7.94-10.6-10.81-7.79c-2.09,2.05-2.58,5.45-3.16,8.22
		c-2.51,11.99-5.26,40.88-5.26,41.62c0.03-8.97-0.1-17.96-0.44-26.92c-0.17-4.59-0.39-9.18-0.82-13.75
		c-0.39-4.03-0.6-8.73-4.48-10.92c-3.6-2.03-8.54-0.45-10.37,3.36c-3.19,6.62-0.1,39.97,0.68,47.37
		c-1.01-10.22-3.63-28.68-4.83-35.66c-0.49-2.84-0.8-6.28-2.35-8.72c-2.13-3.35-6.32-2.81-9.15-0.77c-3.44,2.48-4.43,6.49-4.6,10.61
		c-0.44,11.12,2.99,29.06,5.26,39.99c2.04,9.83,3.74,107.86,3.74,109.13c0,1.27,12.8,2.3,28.6,2.3c15.8,0,28.6-1.03,28.6-2.3
		c0-0.13,1.28-97.13,1.28-97.13c2.02-8.63,3.97-17.3,5.74-25.99C1492.69,289.84,1494.43,284.91,1494.01,280.67z"/>
	<path class="st48" d="M1483.01,273.48c-4.3,2.62-5.94,8.75-10.36,22.12c1-9.35,2.46-23.89,2.64-33.26
		c0.37-12.95-10.52-14.22-13.89-8.01c-2.61,4.98-5.03,27.51-5.69,33.49c-0.14-7.81-0.23-16.3-1.24-27.4
		c-0.27-2.35-0.57-4.88-1.95-7.1c-3.18-5.24-11.16-4.72-14.08,0.91c-2.37,5.43-1.32,21.8-0.93,28.03
		c-1.44-9.78-1.68-10.77-2.31-14.75c-0.82-4.27-1.17-10.86-5.46-12.05c-2.22-0.65-4.58,0.14-6.4,1.44c1.84-1.28,4.21-2.01,6.37-1.33
		c4.17,1.23,4.39,7.67,5.15,12c0.07,0.53,2.88,19.15,4.35,34.52c0,0,0,0.01,0,0.01c-0.78-26.98-2.32-44.65,1.34-48.51
		c2.84-3.29,8.37-3.28,10.68,0.59c1.92,3.09,1.7,7.79,2.51,20.48c0.26,9.41,1.55,33.88,1.55,33.88c0.59-6.44,4.7-47.5,7.78-53.25
		c2.41-4.44,10.59-3.68,10.28,7.02c-0.25,15.74-4.17,47.82-4.43,50.2l2.76-8.27c6.88-20.58,8.13-26.69,12.18-29.23
		c2.62-1.52,6.24-0.79,8.15,2.29c2.58,3.98,0.47,10.13-0.68,15.3c-0.05,0.22-5.83,27.03-5.79,26.82
		c-0.22,28.61-0.15,20.15-0.37,48.64l-0.24,48.57l1.04-48.56l0.9-48.48c8.21-36.41,8.02-34.27,8.03-37.54
		C1495.09,274.83,1488.49,270.34,1483.01,273.48z"/>
	<path class="st46" d="M1464.5,319.96c0,0-25.37,19.89-31.54,36.03c-6.16,16.14-2.56,40,11.79,37.61
		c14.36-2.38,15.38-28.61,15.38-33.64c0-5.03,15.9-25.16,15.9-34.44C1476.04,316.25,1464.5,319.96,1464.5,319.96z"/>
	<path class="st47" d="M1434.07,388.67c5.77,7.93,19.92,8.01,24.05-16.23c2.86-16.5-2.38-9.08,7.36-25.42
		c5.44-9.03,16.15-25.87,5.38-27.41c-2.08-0.36-4.27-0.13-6.37,0.35c4.53-1.51,10.42-1.61,11.65,3.09
		c1.94,6.29-4.6,16.95-9.17,24.91c-9.27,16.03-4.03,8.19-7.14,24.81c-3.85,20.19-14.3,23.68-21.02,20.44
		C1436.79,392.25,1435.19,390.57,1434.07,388.67z"/>
</g>
<g>
	<polygon class="st27" points="1537.24,688.89 1523.85,708.21 1477.08,663.12 1455.53,663.94 1447.18,657.64 1444.88,655.89 
		1473.85,615.54 1480.24,619.95 1487.18,624.76 1489.56,649.71 	"/>
	<path class="st49" d="M1505.54,705.53c0,0,21.43,12.48,24.55,29.79c3.12,17.31-9.74,42.48,0,47.41c9.74,4.93,26.5-18.42,26.5-31.71
		c0-13.28-20-39.85-20-39.85s25.46-22.04,23.41-26.67c-1.54-3.49-9.45-12.11-12.95-8.48c-3.51,3.62-24.35,29.92-24.35,29.92
		l-16.26-14.52L1505.54,705.53z"/>
	<g>
		<path class="st50" d="M1289.8,698.98c-92.62,0-167.98,77.83-167.98,173.52c0,12.89,1.4,25.45,4.02,37.55
			c0.79,3.71,1.71,7.39,2.73,11.03l-20.17,0.69c-0.77-3.04-1.48-6.1-2.1-9.18c-2.67-12.93-4.08-26.34-4.08-40.09
			c0-106.84,88.03-192.34,191.46-192.34C1294.03,680.17,1290.51,698.98,1289.8,698.98z"/>
		<path class="st51" d="M1128.56,921.07l-20.17,0.69c-0.77-3.04-1.48-6.1-2.1-9.18c3.63,0.34,8.25,0.32,13.59-0.77
			c2.27-0.46,4.25-1.07,5.94-1.77C1126.62,913.76,1127.54,917.44,1128.56,921.07z"/>
	</g>
	<g>
		<path class="st50" d="M1292.39,791.18c-26.22,0-47.54-22.03-47.54-49.11c0-27.08,21.33-49.11,47.54-49.11
			c26.21,0,47.54,22.03,47.54,49.11C1339.93,769.15,1318.6,791.18,1292.39,791.18z M1292.39,709.06
			c-17.62,0-31.95,14.81-31.95,33.01c0,18.2,14.33,33.01,31.95,33.01c17.62,0,31.95-14.81,31.95-33.01
			C1324.34,723.87,1310.01,709.06,1292.39,709.06z"/>
	</g>
	<g>
		<path class="st50" d="M1296.94,872.5c-47.91,0-86.89-40.27-86.89-89.77c0-49.5,38.98-89.77,86.89-89.77
			c47.92,0,86.9,40.27,86.9,89.77C1383.84,832.23,1344.86,872.5,1296.94,872.5z M1296.94,709.06c-39.32,0-71.31,33.05-71.31,73.67
			c0,40.62,31.99,73.67,71.31,73.67c39.32,0,71.31-33.05,71.31-73.67C1368.25,742.11,1336.26,709.06,1296.94,709.06z"/>
	</g>
	<g>
		<path class="st52" d="M1296.94,933.58c-65.96,0-119.63-55.44-119.63-123.59c0-68.15,53.66-123.59,119.63-123.59
			c65.96,0,119.63,55.44,119.63,123.59C1416.57,878.14,1362.91,933.58,1296.94,933.58z M1296.94,702.5
			c-57.37,0-104.04,48.22-104.04,107.49c0,59.27,46.67,107.49,104.04,107.49c57.37,0,104.04-48.22,104.04-107.49
			C1400.99,750.72,1354.31,702.5,1296.94,702.5z"/>
	</g>
	<g>
		<path class="st53" d="M1292.39,988.54c-82.29,0-149.24-69.16-149.24-154.18c0-85.02,66.95-154.18,149.24-154.18
			c82.29,0,149.24,69.17,149.24,154.18C1441.63,919.37,1374.68,988.54,1292.39,988.54z M1292.39,696.27
			c-73.7,0-133.66,61.94-133.66,138.08c0,76.14,59.96,138.08,133.66,138.08c73.7,0,133.66-61.94,133.66-138.08
			C1426.04,758.22,1366.09,696.27,1292.39,696.27z"/>
	</g>
	<path class="st53" d="M1467.59,796.25c-0.77,95.01-57.35,165.33-168.97,176.04v16.23c0.35,0,0.69,0.02,1.04,0.02
		c102.94,0,186.75-86.13,187.52-192.29H1467.59z"/>
	<g>
		<path class="st54" d="M1298.62,985.33c-73.32,5.52-154.91-64.42-155.48-150.97c-0.62,88.34,70.76,157.9,154.58,154.96
			c0,0.05,35.25,1.77,72.95-14.3c67.87-28.79,116.42-97.63,116.51-178.77C1485.75,899.42,1404.24,977.38,1298.62,985.33z"/>
		<path class="st54" d="M1386.33,737.3c24.82,25.24,39.51,60.85,39.71,97.05c0.3-35.55-12.59-70.91-38.67-98.13
			c-84.27-88.21-229.66-24.74-228.64,98.13C1159.38,715.06,1300.52,649.85,1386.33,737.3z"/>
	</g>
	<polygon class="st55" points="1513.71,688.89 1500.73,813.42 1491.37,811.97 1455.53,806.45 1488.49,691.53 1492.93,676.01 	"/>
	<path class="st16" d="M1513.71,688.89l-12.98,124.54l-9.36-1.45c4.1-18.04,11.98-57.49,8.61-81.17c-2.35-16.39-7.31-30-11.5-39.27
		l4.44-15.52L1513.71,688.89z"/>
	<path class="st56" d="M1500.03,812.5c-14.82-2.11-29.65-4.21-44.51-6.05c14.13,2.61,30.21,5.3,45.9,7.92
		c4.27-37.59,9.31-87.59,12.29-125.48C1512.37,699.23,1500.23,810.67,1500.03,812.5z"/>
	<polygon class="st57" points="1143.35,931.1 1116.24,933.17 1104.74,934.04 1097.47,934.6 1096.43,920 1103.7,919.44 
		1115.2,918.57 1142.31,916.5 	"/>
	<polygon class="st58" points="1116.24,933.17 1115.2,918.57 1103.7,919.44 1104.74,934.04 	"/>
</g>
<g>
	<rect x="849.97" y="828.59" class="st59" width="30.25" height="42.92"/>
	<path class="st60" d="M917.91,919.82c22.29,10.29,45.15,38.07,51.34,72.39c8.8,50.57,0.71,170.18-42.6,181.62
		c-20.86,4.55-35.79-3.08-43.34-27.06c-2.28-7.41-3.55-15.08-3.85-22.87l1.51-0.02c1.63,23.37,11.67,47.98,34.48,47.52
		c6.63,0,13.72-2.08,18.79-6.36c25.81-21.59,30.4-92.51,29.48-126.8c-1.08-38.83-6.54-71.49-35.32-95.81
		c-9.8-7.92-15.14-9.7-15.5-9.92l-0.02,0L917.91,919.82z"/>
	<path class="st61" d="M887.74,871.13v39.29h-45.69v-39.29c0-4.19,3.15-7.61,7.13-7.89c0.17-0.02,0.35-0.02,0.52-0.02h30.38
		C884.32,863.22,887.74,866.76,887.74,871.13z"/>
	<path class="st62" d="M887.74,871.13v39.29h-17.58c0.13-9.79-0.58-20.8-3.46-29.26c-2.86-8.44-10.13-14.14-17.52-17.92
		c0.17-0.02,0.35-0.02,0.52-0.02h30.38C884.32,863.22,887.74,866.76,887.74,871.13z"/>
	<path class="st63" d="M930.69,924.45c0,0-0.03-0.45-0.11-1c-2.46-19.08-31.86-34.22-67.46-34.22c-37.21,0-67.37,16.46-67.37,36.76
		c0,0.02,0,0.04,0,0.06c-6.62,87.65-6.58,175.3,0.12,262.94c44.94,13.23,89.88,13.23,134.82,0
		C937.42,1100.8,937.43,1012.63,930.69,924.45z"/>
	<path class="st64" d="M930.68,1188.98c-44.94,13.23-89.88,13.23-134.81,0c-0.08-0.92-0.13-1.81-0.21-2.72
		c92.3,18.71,119.06-207.95,97.34-255.47c-11.71-25.61-33.57-35.74-51.55-39.61c6.81-1.27,14.09-1.95,21.69-1.95
		c36.54,0,66.16,15.93,67.55,35.2C937.43,1012.61,937.43,1100.79,930.68,1188.98z"/>
	<g>
		<path class="st65" d="M661.29,1121.82c-26.21,0-48.91-13.05-48.91-23.22c0-10.17,21.33-18.44,47.54-18.44
			c26.21,0,47.54,8.27,47.54,18.44C707.46,1108.77,687.5,1121.82,661.29,1121.82z M659.92,1086.2c-17.62,0-31.95,5.56-31.95,12.4
			c0,6.83,14.33,12.4,31.95,12.4c17.62,0,31.95-5.56,31.95-12.4C691.87,1091.77,677.54,1086.2,659.92,1086.2z"/>
	</g>
	<polygon class="st65" points="367.57,1098.08 353.67,1103.51 352.09,1099.22 365.99,1093.78 	"/>
	<path class="st32" d="M836.79,733.14c-6.59,0-11.93,5.52-11.93,12.32v14.26c0,11.64,17.53,20.75,39.92,20.75
		c22.38,0,39.92-9.12,39.92-20.75v-14.26c0-6.8-5.34-12.32-11.92-12.32H836.79z M864.78,775.81c-21.17,0-35.4-8.32-35.4-16.08h70.8
		C900.18,767.5,885.96,775.81,864.78,775.81z"/>
	<rect x="857" y="772.31" class="st66" width="16.7" height="36.31"/>
	<path class="st61" d="M887,828.59h-44.44V809.3c0-1.88,1.52-3.4,3.4-3.4h37.63c1.88,0,3.4,1.52,3.4,3.4V828.59z"/>
	<path class="st67" d="M931.5,940.96c1.25,45.85,6.23,127.73-2.45,246.64c-44.21,13.02-87.69,13.43-133.19,1.38
		c51.17,16.55,92.34,12.78,136.42,1.37c0.79-25.3,12.36-104.12-1.6-265.81C930.69,924.54,931.5,940.94,931.5,940.96z"/>
	<path class="st63" d="M964.95,968.9c-2.95,2.46-12.09,6.84-15.18,9.11c25.34,63.95,8.08,159.03-14.02,182.44
		c0.6,1.55,5.21,7.08,6.01,8.54C972.62,1140.94,987.58,1024.44,964.95,968.9z"/>
	<g>
		<path class="st68" d="M855.1,1184.71c0,6.07-4.95,11-11.07,11c-6.11,0-11.07-4.92-11.07-11c0-6.07,4.95-11,11.07-11
			C850.14,1173.72,855.1,1178.64,855.1,1184.71z"/>
		<path class="st69" d="M844.03,1173.72c-0.22,0-0.44,0.02-0.66,0.03c5.8,0.34,10.41,5.11,10.41,10.96c0,5.85-4.6,10.62-10.41,10.97
			c0.22,0.01,0.44,0.03,0.66,0.03c6.11,0,11.07-4.92,11.07-11C855.1,1178.64,850.14,1173.72,844.03,1173.72z"/>
		<path class="st11" d="M817.46,1196.06c-18.28,0-36.5-6.24-48.93-15.2c-15.27-11.01-22.37-25.61-20.01-41.1
			c4.86-31.79-22.13-40.11-23.3-40.36l-8.97-12.58c18.97,4.13,48.9,20.53,43.66,54.8c-2.22,14.5,8.58,24.69,15.21,29.47
			c16.36,11.8,44.22,17.66,65.16,8.62c2.73-1.18,5.88-0.17,7.32,2.5l0.06,0.12c1.67,3.09,0.33,6.96-2.83,8.34
			C836.23,1194.42,826.84,1196.06,817.46,1196.06z"/>
	</g>
	<g>
		<path class="st65" d="M370.25,1100.62l-2.48-9.59c96.76-26.73,281.75-10.62,283.51-10.48l-6.43,6.72
			C643.11,1087.14,465.46,1074.33,370.25,1100.62z"/>
	</g>
	<polygon class="st11" points="367.77,1088.12 371.9,1102.69 366.13,1103.77 362.04,1091.16 	"/>
	<path class="st70" d="M357.57,1099.2c-1.23-2.9-4.62-4.11-7.48-2.99c0,0-38.81,15.81-57.02,23.51c-4.34,1.83-5.33,7.72-1.85,10.96
		l16.06,14.96c1.8,1.69,4.53,1.68,6.44-0.07c0,0,5.78-4.89,1.17-8.59l-7.09-6.64c-1.75-1.64-1.2-4.61,1-5.47l45.6-17.83
		C357.41,1105.85,358.89,1102.29,357.57,1099.2z"/>
	<path class="st71" d="M313.71,1145.57c1.69-1.71,3.36-4.29,2.39-6.5c-0.42-1.11-8.94-8.39-9.38-8.96c-1.28-1.79-0.7-4.61,1.23-5.73
		c4.91-2.8,46.48-17.49,48.1-19.17c1.12-1.12,1.69-2.8,1.51-4.44c-0.35-3.68-4.1-5.65-7.48-4.56c5.98-2.67,11.25,4.84,6.78,9.81
		c-1.35,1.54-2.87,1.77-4.74,2.65c-50.21,21.45-50.92,14.27-36.98,28l-0.02-0.02c1.45,1.43,2.21,2.84,1.59,4.86
		C316.18,1143.21,314.98,1144.51,313.71,1145.57z"/>
	<path class="st72" d="M352.38,1099.45c-8.78,2.98-52.46,16.84-56.4,23.74c-3.3,4.95,6.1,10.96,5.59,10.5
		c0.23,0.13,0.32,0.43,0.2,0.67c-0.23,0.45-0.85,0.19-0.66,0.2c-2.75-1.57-5.15-4.03-6.26-7.11c-1.17-3.73,0.81-5.85,4.07-7.82
		c9.89-5.89,23.1-10.26,35.34-14.25L352.38,1099.45z"/>
	<path class="st73" d="M829.06,902.64c0,0-18.27,15.89-22.59,53.64c-4.33,37.74,15.38,196.67,15.38,196.67
		S813.68,914.56,829.06,902.64z"/>
	<g>
		<path class="st11" d="M664.48,1147.57c-47.91,0-81.39-15.12-81.39-33.71c0-18.59,33.47-33.71,81.39-33.71
			c47.91,0,86.9,15.12,86.9,33.71C751.37,1132.45,712.39,1147.57,664.48,1147.57z M664.48,1086.2c-39.32,0-71.31,12.41-71.31,27.66
			s31.99,22.52,71.31,22.52c39.32,0,71.31-7.27,71.31-22.52S703.8,1086.2,664.48,1086.2z"/>
	</g>
	<path class="st65" d="M314.69,1137.92c-3.82-1.56-9.61,5.42-6.19,8.13c1.58,1.26,3.91-0.04,5.25-1.19
		C316.73,1142.28,316.63,1138.72,314.69,1137.92z"/>
	<path class="st65" d="M313.89,1136.92c-6.87-0.38-8.23,5.78-6.61,8.39C304.82,1142.49,307.17,1135.42,313.89,1136.92z"/>
	<path class="st74" d="M313.04,1143.37c-1.15,1.29-2.64,1.79-3.34,1.13c-0.7-0.66-0.33-2.24,0.82-3.53
		c1.15-1.28,2.64-1.79,3.34-1.13C314.55,1140.51,314.18,1142.09,313.04,1143.37z"/>
</g>
<g>
	<path class="st75" d="M1308.52,1122.63c0,7.36-0.8,14.43-2.21,21.09h14.35c1.41-6.65,2.17-13.74,2.17-21.09
		c0-38.53-20.85-69.76-46.56-69.76c-2.43,0-4.82,0.28-7.16,0.82C1291.43,1058.85,1308.52,1087.75,1308.52,1122.63z"/>
	<path class="st75" d="M1303.88,1155.83c8.23-20.53,24.95-40.92,46.86-44.19c9.04-1.19,20.68,1.13,28.15,3.89
		c21.81,8.38,26.9,26.88,24.78,50.49c-2.08,17.2-3.63,21.2-7.31,31.37c-1.01,1.75-11.92,33.54-58.42,91.66l-11.35-9.92
		c31.32-31.66,74.26-86.19,69.17-131c-1.34-12.42-8.05-20.77-19.48-25.29c-25.34-9.58-43.51-0.7-54.32,22.94
		c-1.97,4.81-4.36,12.28-4.25,15.69L1303.88,1155.83z"/>
	<path class="st76" d="M1206.09,1247.4l-24.42,23.04l-72.3-155.9c0,0,0-0.02-0.02-0.04l-4.84-10.45l-45.74,0.71l61.85-49.37
		l-4.96,39.04l76.68,95.61L1206.09,1247.4z"/>
	<path class="st77" d="M1206.09,1247.4l-24.42,23.04l-72.3-155.9c13.86,28.88,54.82,107.15,89.57,103.04L1206.09,1247.4z"/>
	<path class="st78" d="M1327.31,1125.38h-126.37l-23.13,174.08c0,6.42,38.64,11.63,86.31,11.63c47.67,0,86.31-5.21,86.31-11.63
		L1327.31,1125.38z"/>
	<path class="st75" d="M1350.44,1299.45c0,6.44-38.65,11.64-86.32,11.64c-47.67,0-86.32-5.2-86.32-11.64l1-7.47
		c24-2.54,50.15-7.73,60.44-18.35c17.65-18.26,23.21-117.39,24.54-148.26h63.53L1350.44,1299.45z"/>
	<path class="st79" d="M1327.31,1125.37c25.34,199.06-17.33-131.99,22.17,174.1c-0.53,10.55-121.86,15.37-162.35,5.12
		c-2.61-0.67-9.13-2.39-9.33-5.14c0.13,2.76,6.67,4.65,9.26,5.38c38.64,10.7,160.7,9.3,164.33-5.42
		C1309.6,993.63,1354.75,1323.56,1327.31,1125.37z"/>
	<path class="st80" d="M1327.52,1125.38c0,8.89-28.34,16.11-63.29,16.11c-34.95,0-63.29-7.21-63.29-16.11
		c0-8.9,28.34-16.11,63.29-16.11C1299.18,1109.27,1327.52,1116.48,1327.52,1125.38z"/>
	<path class="st79" d="M1314.92,1125.38c0,6.36-22.28,11.52-49.76,11.52c-27.49,0-49.77-5.16-49.77-11.52
		c0-6.36,22.28-11.52,49.77-11.52C1292.64,1113.86,1314.92,1119.01,1314.92,1125.38z"/>
	<path class="st78" d="M1231.92,1143.72c-1.41-6.66-2.21-13.73-2.21-21.09c0-34.88,28.72-64.28,51.04-69.44
		c-2.33-0.54-15.84-2.27-18.27-2.27c-25.72,0-47.76,33.18-47.76,71.71c0,7.35,1.45,14.44,2.85,21.09H1231.92z"/>
</g>
<g>
	<rect x="903.35" y="384.43" class="st81" width="7.09" height="204.05"/>
	<polygon class="st82" points="903.35,384.43 910.44,384.43 910.44,588.47 908.12,386.29 	"/>
	<path class="st83" d="M883.29,339.74c0,0-35.64,22.58-34.48,33.56c1.16,10.99,5.56,12.06,5.56,12.06s4.69,10.32,13.2,5.72
		C876.08,386.49,883.29,339.74,883.29,339.74z"/>
	<path class="st83" d="M950.92,412.86c0,0-50.86,1-52.21,11.19c-1.35,10.19,2.74,16.56,10.56,16.56c0,0-3.15,2.96,3.94,11.01
		C931,471.8,950.92,412.86,950.92,412.86z"/>
	<path class="st83" d="M804.25,448.13c0,0,42.3-29.19,49.04-21.63c6.74,7.56,6.91,15.22,0.49,19.83c0,0,4.22,0.58,2.85,11.36
		C853.19,484.75,804.25,448.13,804.25,448.13z"/>
	<path class="st84" d="M926.75,432.24c-15.03,4.96-31.09,15.06-32.64,29.99c-11.67-16.77-29.16-31.82-40.87-46.24
		c-7.07-15.26,1.88-34.16,12.6-46.88c-10.92,11.49-18.98,27.7-15.62,42.98c-2.79-3.78-5.12-7.52-6.74-11.24
		c-9.63-23.79,28.87-81.87,28.6-81.6c0.26-0.33-1.86,2.36-2.12,2.69c-50.24,77.84-29.24,84.7,2.46,119.95
		c-9.74-1.57-20.78,4.39-27.65,10.93c8.1-6.44,22.23-12.33,31.52-6.41l0.05-0.09c47.81,54.89,13,54.97,3.44,134.35l5.62,0.49
		c1.61-14.39,7.74-42.06,18.11-70.19c5.9-16.15,1.91-30.65-6.31-44.05C894.33,450.51,911.59,438.32,926.75,432.24z"/>
	<path class="st85" d="M804.25,602.12h154.92c0,0-17.53-15.77-28.36-13.64c0,0-12.11-12.64-32.36-8.19c0,0-9.41-14.19-26.95-12.06
		c-17.53,2.13-25.78,16.83-25.78,16.83S814.87,577.4,804.25,602.12z"/>
	<g>
		<path class="st86" d="M911.53,488.52c-0.61-0.62-1.58-0.62-2.19,0c-3.05,3.15-7.45-0.63-7.63-0.79c-0.65-0.57-1.63-0.49-2.18,0.18
			c-0.55,0.67-0.48,1.68,0.17,2.25c1.43,1.27,4.06,2.81,6.82,2.81c1.71,0,3.46-0.59,5.01-2.19
			C912.14,490.15,912.14,489.14,911.53,488.52z"/>
		<path class="st86" d="M899.37,487.01l-1.64-1.69c-0.42-0.44-10.51-10.78-18.65-12.04c-5.64-0.88-11.85,3.44-14.83,7.94
			c-2.51,3.79-2.94,7.79-1.18,10.95c1.23,2.21,3.99,3.04,7.46,3.04c7.76,0,19.02-4.14,24.42-6.33
			c-4.03,2.75-18.43,13.28-14.51,20.96c0.85,1.66,2.15,2.55,3.67,2.55c0.34,0,0.7-0.05,1.06-0.14c5.74-1.47,13.01-15.28,13.01-22.6
			v-2.13L899.37,487.01z M865.75,490.58c-1.56-2.82-0.01-5.94,1.06-7.55c2.58-3.91,7.13-6.66,10.8-6.66c0.35,0,0.69,0.02,1.02,0.08
			c5.32,0.82,12.06,6.55,15.19,9.46C882.96,490.27,867.87,494.39,865.75,490.58z M884.44,509.15c-0.33,0.08-0.74,0.19-1.25-0.8
			c-1.97-3.86,5.65-11.03,11.45-15.36C893.01,499.64,887.47,508.37,884.44,509.15z"/>
	</g>
	<path class="st87" d="M901.3,487.48c0,1.72-1.35,3.11-3.01,3.11s-3.01-1.39-3.01-3.11c0-1.72,1.35-3.11,3.01-3.11
		S901.3,485.77,901.3,487.48z"/>
</g>
<g>
	<path class="st88" d="M1546.62,1304.63l-10.69,119.93c0,0.02,0,0.02,0,0.04c0,7.85-21.21,14.2-47.36,14.2
		c-24.56,0-44.76-5.6-47.11-12.79c-0.17-0.46-10.94-121.38-10.94-121.38H1546.62z"/>
	<path class="st88" d="M1546.62,1304.63l-10.69,119.93c0,0.02,0,0.02,0,0.04c0,7.85-21.21,14.2-47.36,14.2
		c-24.56,0-44.76-5.6-47.11-12.79c78.26-5.38,75.9-98.29,74.09-121.38H1546.62z"/>
	<path class="st89" d="M1534.98,1424.52c-0.08,0.2,0.29,2.18-2.97,4.57c-16.57,12.67-84.75,11.72-90.56-3.08
		c6.36,18.5,91.01,20.07,95.41-0.51c0,0,9.74-120.66,9.75-120.86C1546.62,1304.63,1537.61,1395.71,1534.98,1424.52z"/>
	<path class="st90" d="M1546.62,1304.63c0,1.39-1.58,2.72-4.42,3.94c-8.73,3.71-29.46,6.32-53.63,6.32
		c-18.56,0-35.09-1.53-45.7-3.93c-7.73-1.73-12.35-3.94-12.35-6.32c0-5.66,25.98-10.25,58.05-10.25
		C1520.62,1294.38,1546.62,1298.97,1546.62,1304.63z"/>
	<path class="st91" d="M1488.56,1294.38c-32.07,0-58.05,4.59-58.05,10.25c0,2.38,4.61,4.59,12.35,6.32
		c10.61,2.4,27.15,3.93,45.7,3.93c24.17,0,44.9-2.6,53.63-6.32c2.84-1.21,4.42-2.54,4.42-3.94
		C1546.62,1298.97,1520.62,1294.38,1488.56,1294.38z M1541.46,1306.73c-8.8,3.75-29.57,6.17-52.9,6.17
		c-17.88,0-34.39-1.42-45.3-3.89c-9.85-2.2-10.8-4.34-10.83-4.34l0,0c0.02-0.06,1.3-2.95,16.34-5.49
		c10.75-1.81,24.88-2.81,39.79-2.81c14.9,0,29.03,1,39.78,2.81c15.02,2.53,16.33,5.42,16.36,5.42l0,0
		C1544.69,1304.61,1544.35,1305.5,1541.46,1306.73z"/>
	<path class="st92" d="M1542.19,1308.57c-8.73,3.71-29.46,6.32-53.63,6.32c-18.56,0-35.09-1.53-45.7-3.93
		c8.73-3.72,29.46-6.32,53.63-6.32C1515.04,1304.63,1531.56,1306.16,1542.19,1308.57z"/>
	<path class="st93" d="M1530.8,1159.6c-10.27,4.17-22.24,11.23-24.56,22.36c-6.55-20.04-16.33-38.42-19.12-66.49
		c2.52-7.97,10.18-16,16.5-21.25c-6.15,4.55-13.27,11.23-16.77,18.12c-1.94-24.77,2.53-51.96,11.22-73.31l-1.73-0.86
		c-13.66,32.62-17.34,72.97-4.96,113.02c-5.33-3.49-13.5-4.63-19.82-4.33c6.66,0.14,15.77,2.02,20.61,6.84
		c10.23,31.97,18.85,44.99,13.63,80.17c-4.86-8.53-17.75-11.15-27.19-11.2c10.02,0.59,24.09,4.43,26.72,14.27
		c-3.91,24.58-11.45,49.94-21.27,73.47l10.57,0.2c7.75-25.09,12.32-46.9,15.21-65.87c8.36-57.23-20.1-65.98,21.15-84.7
		c3.7-1.66,7.51-3.11,11.41-4.25C1538.45,1156.79,1534.58,1158.08,1530.8,1159.6z"/>
	<path class="st84" d="M1497.3,1099.36c0,0,17.21,4.3,33.55-4.31c16.35-8.61,20.83-34.88,20.83-34.88
		S1494.83,1055.99,1497.3,1099.36z"/>
	<path class="st84" d="M1425.1,1120.21c0,0,22.11-3.8,36.85,3.81c6.82,3.52,13.83,12.07,12.99,20.42
		c-1.25,12.42-15.71,11.69-24.25,9.06c-9.69-2.98-18.57-9.62-22.8-19.31C1425.97,1129.81,1425.1,1125.01,1425.1,1120.21z"/>
	<path class="st84" d="M1470.44,1043.33c0,0-7.45,11.92,0,27.31c7.45,15.39,19.71,9.93,19.71,0
		C1490.15,1060.71,1470.44,1043.33,1470.44,1043.33z"/>
	<path class="st84" d="M1493.12,1012.95c0,0,17.42,31.54,6.91,38.24c-10.51,6.71-18.92-2.23-18.92-8.19
		C1481.1,1037.03,1493.12,1012.95,1493.12,1012.95z"/>
	<path class="st84" d="M1567.07,1144.64c0,0-47.11-14.65-51.68,9.93c-4.57,24.58,10.1,28.56,20.67,25.58
		C1546.64,1177.17,1567.07,1144.64,1567.07,1144.64z"/>
	<path class="st84" d="M1451.3,1199.85c0,0,34.93-6.95,42.7,8.69c7.77,15.64,0.56,28.31-5.93,28.31
		C1481.58,1236.85,1461.87,1230.64,1451.3,1199.85z"/>
	<path class="st92" d="M1504.59,1305.06c-0.6-2.29-4.87-4.12-8.47-2.52c-3.61,1.6-3.67,2.37-3.67,2.37s-5.29-5.04-8.53-3.28
		c-3.25,1.76-2.34,5.04-2.34,5.04s-2.7-3.21-5.35-3.21c-2.64,0-3,7.41-3,7.41h30.34
		C1503.56,1310.87,1505.19,1307.36,1504.59,1305.06z"/>
	<path class="st91" d="M1541.54,1300.44h-6.88c9.07,2.14,10.02,4.15,10.04,4.15l0,0c-0.01,0.02-0.34,0.9-3.24,2.14
		c-8.8,3.75-29.57,6.17-52.9,6.17c-17.88,0-34.39-1.42-45.3-3.89c-9.85-2.2-10.8-4.34-10.83-4.34l0,0
		c0.02-0.05,0.95-2.08,10.04-4.23h-6.88c-3.25,1.28-5.08,2.7-5.08,4.19c0,2.38,4.61,4.59,12.35,6.32c10.61,2.4,27.15,3.93,45.7,3.93
		c24.17,0,44.9-2.6,53.63-6.32c2.84-1.21,4.42-2.54,4.42-3.94C1546.62,1303.14,1544.79,1301.72,1541.54,1300.44z"/>
</g>
<g>
	<path class="st17" d="M1318.05,537.67l-2.08,21.02h-35.57v-6.95c0,0-11.3-2.48-20.43,1.49c-9.13,3.97-19.95,5.46-19.95,5.46v-4.97
		h-11.3v4.97h-12.5v-4.97h-13.7v5.71h-14.66v-5.71l-11.78-0.25v4.47l-10.57-2.23v-5.71l-7.45-2.85v4.83c0,0-8.57-4.22-11.62-11.42
		c-3.04-7.2,0.41-26.6,0.41-26.6l166,16.42L1318.05,537.67z"/>
	<path class="st27" d="M1321.89,345.75l-14.08,126.26c0,0,10.71,33.11,10.9,50.99c0.15,13.96-0.64,14.57-0.64,14.57
		s-58.33,0.66-71.15,5.3c-10.75,3.89-58.45,8.24-85.67-2.95c-9.85-4.05-16.14-14.49-14.52-25.31c0.72-4.84,3-8.83,8.54-8.83
		c14.1,0,50.64,3.97,58.33-3.97c7.69-7.95,19.23-30.46,14.74-41.72c-4.49-11.26-33.96-114.24-33.96-114.24L1321.89,345.75z"/>
	<path class="st19" d="M1318.7,523c0.16,13.96-0.63,14.57-0.63,14.57s-18.66,0.22-37.18,1.23c2.39-3.74,6.28-11.78,6.28-24.84
		c0-18.91-6.2-44.42-6.2-44.42c3.11-11.92-13.07-99.97-17.55-123.75l58.46-0.04l-14.08,126.26
		C1307.8,472.02,1318.52,505.12,1318.7,523z"/>
	<path class="st20" d="M1308.67,472.03c4.12-36.55,8.99-78.32,13.22-126.21c-5.58,41.37-10.28,83.15-14.95,126.39
		c6.46,21.22,12.12,39.37,11.54,61.32c-0.07,1.38-0.02,2.81-0.42,4.14c0.93-2.63,1.01-14.07,0.9-16.71
		C1318.49,507.09,1312.83,485.37,1308.67,472.03z"/>
	<path class="st21" d="M1321.89,345.7c0,1.47-2.69,2.81-7.44,4.02c-10.71,2.74-31.92,4.61-56.32,4.61
		c-22.77,0-42.77-1.63-54.03-4.07c-6.17-1.33-9.75-2.92-9.75-4.61c0-4.81,28.56-8.7,63.78-8.7
		C1293.34,336.95,1321.89,340.89,1321.89,345.7z"/>
	<g>
		<path class="st21" d="M1314.45,349.72c-10.71,2.74-31.92,4.61-56.32,4.61c-22.77,0-42.77-1.63-54.03-4.07
			c10.73-2.76,31.9-4.61,56.26-4.61C1283.17,345.65,1303.18,347.28,1314.45,349.72z"/>
	</g>
</g>
<polygon class="st11" points="1431.54,646.83 1441.63,660.5 1478.06,612.13 1461.67,604.96 "/>
</svg>
