<?xml version="1.0" encoding="utf-8"?>
<!-- Generator: Adobe Illustrator 27.6.1, SVG Export Plug-In . SVG Version: 6.00 Build 0)  -->
<svg version="1.1" id="_x31_" xmlns="http://www.w3.org/2000/svg" xmlns:xlink="http://www.w3.org/1999/xlink" x="0px" y="0px"
	 viewBox="0 0 450 450" style="enable-background:new 0 0 450 450;" xml:space="preserve">
<style type="text/css">
	.st0{fill:#EDB984;}
	.st1{fill:#CC4C5B;}
	.st2{fill:#E79B69;}
	.st3{fill:#A84838;}
	.st4{fill:#514144;}
	.st5{fill:#664956;}
	.st6{fill:#513A47;}
	.st7{fill:#A83148;}
	.st8{fill:#BC3C4F;}
	.st9{fill:#D27558;}
	.st10{fill:#DDD6BF;}
	.st11{fill:#82596E;}
	.st12{fill:#C18EAA;}
	.st13{fill:#99D0DD;}
	.st14{fill:#422E33;}
	.st15{fill:#CEA957;}
	.st16{fill:#896A6E;}
	.st17{fill:#B2B543;}
	.st18{fill:#EDE2C3;}
	.st19{fill:#76AEB7;}
	.st20{fill:#593D45;}
	.st21{fill:#CAE9EF;}
	.st22{fill:#3F2D37;}
	.st23{fill:#6B4E60;}
</style>
<g>
	<g>
		<path class="st0" d="M179.54,155.76c4.21-1.74,8.07-5.11,9.66-4.45c1.59,0.67,2.84,7.22-1.8,7.92c-4.64,0.7-11.12-0.36-11.12-0.36
			L179.54,155.76z"/>
		<path class="st0" d="M182.43,153.1c8.16-0.87,12.85-6.67,13.71-6.55c0.85,0.12-2.21,5.27-6.78,6.97
			C184.78,155.22,182.43,153.1,182.43,153.1z"/>
		<path class="st0" d="M182.41,155.37c8.17-0.03,14.59-5.74,15.58-5.47c0.98,0.26-3.72,5.08-8.51,6.14
			C185.13,156.99,182.41,155.37,182.41,155.37z"/>
		<path class="st0" d="M181.91,158.39c8.85-0.32,13.97-4.56,14.57-4.34c0.58,0.21-2.67,3.63-6.83,4.7
			C184.81,160.01,181.91,158.39,181.91,158.39z"/>
	</g>
	<path class="st1" d="M94.08,109.15c-3.39,17.17,29.05,67.41,37.39,68.22c8.34,0.8,12.97-9.36,8.73-15.06
		c-8.79-11.84-19.69-37.3-23.69-44.97C109.65,104.19,95.97,99.59,94.08,109.15z"/>
	<path class="st0" d="M131.11,176.76c22.28,0.53,53.32-16.24,54.54-19.09c1.93-4.54-45.44,2.51-54.05,1.59
		C123.15,158.36,124.21,176.6,131.11,176.76z"/>
	<path class="st2" d="M166.84,164.29c-18.73,3.76-35.28,2.51-39.89-2.62c-2.88,4.79-0.99,14.97,4.16,15.09
		c19.17,0.45,44.8-11.88,52.37-17.16C178.56,161.45,172.91,163.07,166.84,164.29z"/>
	<path class="st3" d="M108.18,66.53c1.15-1.19,2.16-2.67,2.18-4.32c0.02-1.03-0.35-2.02-0.38-3.05c-0.05-1.39,0.51-2.78,0.22-4.14
		c-0.28-1.33-1.3-2.35-2.27-3.3c-1.89-1.84-3.99-3.78-6.61-4.05c-2.43-0.25-4.81,1.03-6.47,2.82c-1.66,1.79-2.73,4.03-3.77,6.24
		l14.04,28.48c-0.98-2.45-1.89-4.97-2.15-7.59c-0.25-2.63,1.92,1.99,3.47-0.14C107.41,76.14,107.03,67.72,108.18,66.53z"/>
	<path class="st3" d="M110.69,93.66c-0.28-0.47-0.67-0.9-0.74-1.44c-0.1-0.77,0.47-1.56,0.85-2.33c1.21-2.42,0.77-5.01,0.3-7.45
		c-0.59-3.08-1.27-6.36-3.65-8.57c-2.2-2.05-6.3-2.59-9.25-0.96c1.92-1.8,2.99-4.39,3.87-6.82c1-2.79,1.99-5.66,2.25-8.56
		c0.26-2.94-0.3-5.95-2.19-8.02c-2.5-2.75-6.77-3.39-10.79-3.73c-1.93-0.16-3.9-0.28-5.87,0.14c-3.76,0.8-7.01,3.41-9.93,5.95
		c-2.79,2.43-5.58,5.04-6.85,8.28c-1.23-2.66-4.67-3.7-7.74-3.13c-3.04,0.57-5.72,2.38-8.14,4.28c-2.88,2.26-5.69,4.97-6.34,8.36
		c-0.62,3.19,0.8,6.29,2.16,9.11c1.01,2.08,2.13,4.27,4.23,5.36c-1.84,2.43-1.73,5.89,0.2,8.08c1.92,2.18,5.52,2.97,8.44,1.86
		c-0.05,3.53,2.26,6.88,5.73,8.38c3.47,1.5,8.03,1.12,11.4-0.97l3.59-0.47c-0.22,0.15-0.38,0.4-0.36,0.63
		c0.05,0.45,0.49,0.76,0.91,1.01c5.38,3.21,12.98,3.85,19.77,1.61c2.57-0.85,5.1-2.13,6.83-4.04
		C111.12,98.25,111.87,95.6,110.69,93.66z"/>
	<g>
		<polygon class="st4" points="276.01,359.32 93.54,141.74 98.41,137.73 278.77,357.04 		"/>
	</g>
	<path class="st5" d="M139.17,191.6c-23.96,10.84-29.8,16.44-29.8,16.44L96.25,271.8l12.58,133.08
		C108.82,404.87,148.98,262.16,139.17,191.6z"/>
	<path class="st6" d="M126.57,189.58c-5.27,3.17-17.19,18.46-17.19,18.46L96.25,271.8l12.22,129.29
		C113.46,364.08,135.21,252.41,126.57,189.58z"/>
	<path class="st5" d="M134.27,191.56c-1.47,37.64-27.19,130-61.16,216.04c-4.01-73.72-5.74-158.74,2.06-221.74L134.27,191.56z"/>
	<path class="st6" d="M110.37,189.26l-35.06-5.52c-7.8,63-6.23,150.15-2.21,223.87c1.26-3.18,2.5-6.38,3.73-9.58
		C97.34,314.55,103.05,223.97,110.37,189.26z"/>
	<path class="st5" d="M89.41,98.86c-10.82,0.69-24.44,9.45-26.85,13.98c-3.74,7.03,8.5,56.93,14.49,100.18
		c32.53-1.94,39.64,1.41,62.68-15.38c-0.61-20.15-5.16-25.58-7.26-41.78c-0.87-6.7,0.75-15,4.35-18.9
		C129.95,116.77,106.96,97.73,89.41,98.86z"/>
	<path class="st6" d="M109.83,166.95c-10.05-33.1-28.43-57.49-43.1-58.48c-2.02,1.6-3.52,3.14-4.17,4.37
		c-3.74,7.03,8.5,56.93,14.49,100.18C96.12,211.88,94.35,177.34,109.83,166.95z"/>
	<path class="st6" d="M122.97,163.21c4.4-0.36,8.72,2.39,12.47,7.33c-1.11-4.29-2.2-8.76-2.97-14.68
		c-0.84-6.45,0.64-14.36,3.95-18.42c-10.3,1.78-21.52,5.58-32.59,11.42c-14.02,7.39-25.41,16.8-32.96,26.4
		c4.18,15.55,1.88,25.59,1.43,39.96c12.97-0.77,26.28,1.46,33.79,0.76C106,215.23,111.74,164.12,122.97,163.21z"/>
	<path class="st7" d="M92.28,144.3c-5.63-20.41-16.38-35.12-22.98-35.64c-6.76-0.53-6.8,20.85-0.68,42.16
		c6,20.89,9.84,27.92,16.11,27.56C90.85,178.03,97.81,164.32,92.28,144.3z"/>
	<path class="st1" d="M124.37,122.41c-12.68-19.05-32.42-23.76-34.95-23.55c-5.66,0.47-13.69,2.13-18.8,6.72
		c10.07,2.14,21.73,15.39,27.2,26.08C101.93,139.69,130.87,132.18,124.37,122.41z"/>
	<path class="st8" d="M89.41,98.86c-5.66,0.47-13.69,2.13-18.8,6.72c6.3,1.34,13.21,7.02,18.85,13.7c10.68-1.28,20-3.69,26.62-6.67
		C104.47,101.68,91.44,98.69,89.41,98.86z"/>
	<path class="st1" d="M62.78,111.62c-10.17,15.59,0.04,80.01,7.26,84.55c7.22,4.53,17.57-1.29,16.09-8.88
		c-3.06-15.74-4.36-48.23-4.81-57.66C80.55,113.46,68.45,102.94,62.78,111.62z"/>
	<path class="st8" d="M86.02,186.68c-3.19,1.46-7.16,1.58-10.47-0.5c-6.36-3.99-15.04-54.49-10.05-77.1c-1,0.5-1.92,1.33-2.72,2.54
		c-10.17,15.59,0.04,80.01,7.26,84.55c7.22,4.53,17.57-1.29,16.09-8.88C86.09,187.09,86.06,186.88,86.02,186.68z"/>
	<path class="st9" d="M75.87,102.52c-1.16-20.46,0.79-30.96,0.79-30.96l13.88,0.97c0,0,3.59,20.2,5.18,26.55
		C97.84,107.61,86.29,107.64,75.87,102.52z"/>
	<path class="st10" d="M73.28,103.59l1.69-6.08c0,0,7.45,6.96,18.76,3.57c1.02-0.31,2.04-3.77,2.04-3.77l3.26,1.73l1.43,6.93
		l-5.71-0.51l-0.82,5.81C86.62,109.88,79.83,107.06,73.28,103.59z"/>
	<path class="st2" d="M104.73,96.91c-13.8,1.29-25.28-5.79-28.08-18.24c-2.9-12.87,0.88-30.62,12.36-30.98
		c11.11-0.35,17.49,7.51,18.63,19.7C108.75,79.25,104.73,96.91,104.73,96.91z"/>
	<path class="st3" d="M86.86,54.36c-2.82-2.22-7.27-2.58-10.77-1.62c-1.71,0.47-3.35,1.26-4.43,2.42c-0.7,0.76-1.16,1.66-1.54,2.57
		c-1.72,4.02-2.38,8.65-1.8,13.55l3.28,18.15c2.77-11.42,2.64-14.53,8.88-17.86c1.86-0.99,4.07-1.65,5.58-3.05
		c1.51-1.4,1.95-3.84,0.15-5.23C90.02,61.45,89.93,56.78,86.86,54.36z"/>
	<path class="st5" d="M109.08,36.89c-7.16-4.36-29.61-4.86-39.71,5.14c-2.61,2.59-4.05,10.78-3.66,16.35l51.87-1.94
		C117.59,56.43,118.32,42.52,109.08,36.89z"/>
	<path class="st11" d="M109.08,36.89c-4.27-2.6-13.98-3.81-23.27-2.25c-3.42,3.02-5.47,6.89-5.47,11.1c0,4.57,2.44,8.72,6.39,11.85
		l30.85-1.16C117.59,56.43,118.32,42.52,109.08,36.89z"/>
	<path class="st12" d="M107.87,38.08c-2.1-1.28-5.91-2.13-10.25-2.26c0.31,3.41,2.23,7.18,5.54,10.18c3.48,3.16,7.67,4.71,11.22,4.5
		C114.04,46.98,112.74,41.05,107.87,38.08z"/>
	<path class="st12" d="M95.61,38.74c-0.13-0.92-0.18-1.82-0.19-2.71c-1.78-0.22-4.26,0.05-6.92,0.77c0.96,2.37,3.15,4.64,6.16,6.06
		c0.76,0.36,1.53,0.64,2.29,0.85C96.32,42.17,95.86,40.51,95.61,38.74z"/>
	<path class="st13" d="M91.41,59.75l1.71,30.2c0.11,1.88,1.86,3.41,4,3.5l19.69,0.86l1.32-35.95L91.41,59.75z"/>
	<path class="st14" d="M89.83,57l-5.03,0.49c-1.91,8.92,1.3,35.63,2.62,36.28c1.37,1.77,2.76,2.23,4.17,1.59
		C89.51,89.47,87.52,71.19,89.83,57z"/>
	<path class="st10" d="M129.77,415.67h-25.8c0,0,2.23-14.83,5.22-12.13C114.03,407.9,129.77,415.67,129.77,415.67z"/>
	<path class="st10" d="M56.86,415.67h20.37c0,0-1.46-13.18-4.39-10.8C67.66,409.07,56.86,415.67,56.86,415.67z"/>
	<path class="st15" d="M72.41,104.72l-2.58,1.62c35.39,12.65,69.11,51.07,83.87,107.07l6.47,8.11
		C146.89,170.56,123.51,125.65,72.41,104.72z"/>
	<g>
		<polygon class="st4" points="168.6,224.54 163.81,220.8 165.8,196.99 171.01,197.43 		"/>
	</g>
	<g>
		<path class="st16" d="M159.8,200.55c-6.96,0-13.18-2-18.14-5.92c-9.19-7.27-13.41-20.68-11.28-35.87l6.33-0.15
			c-1.86,13.26,1.67,24.85,9.45,31c6.33,5.01,14.92,6.11,24.86,3.21c5.02-1.47,8.66-4.11,11.13-8.06
			c7.07-11.34,1.95-29.06,1.9-29.24l6.17-2.54c0.24,0.83,5.9,20.46-2.73,34.3c-3.48,5.58-8.71,9.42-15.55,11.43
			C167.72,199.94,163.65,200.55,159.8,200.55z"/>
	</g>
	<path class="st17" d="M317.56,307.07c-0.06-0.16-0.2-0.27-0.33-0.38c-0.5-0.4-1-0.79-1.5-1.19c-3.47,3.8-5.92,8.52-7.05,13.54
		l1-0.32c1.73-4.03,4.29-7.7,7.45-10.73C317.4,307.74,317.69,307.41,317.56,307.07z"/>
	<path class="st17" d="M344.89,325.6c0.14-0.05,0.23-0.17,0.32-0.29c0.33-0.44,0.65-0.87,0.98-1.31c-3.32-2.88-7.4-4.87-11.7-5.72
		l0.29,0.85c3.47,1.39,6.66,3.49,9.31,6.12C344.31,325.47,344.6,325.71,344.89,325.6z"/>
	<path class="st17" d="M231.72,364.14c-3.44-3.15-5.92-7.29-7.01-10.02c-0.71,0.73-1.39,1.51-2.04,2.32
		c-0.18,0.23-0.37,0.5-0.31,0.84c0.05,0.3,0.27,0.56,0.48,0.79c2.48,2.75,5.23,5.16,8.12,7.22
		C231.17,364.88,231.42,364.5,231.72,364.14z"/>
	<path class="st17" d="M243.79,382.62c0.43-4.58,2.31-10.62,4.01-14.59c-0.93-0.2-1.96-0.33-3.09-0.37
		c-0.33-0.01-0.72,0.01-1.01,0.49c-0.26,0.42-0.34,1.04-0.41,1.59c-0.69,5.77-0.83,10.21-0.63,13.51
		C243.04,383,243.42,382.78,243.79,382.62z"/>
	<path class="st17" d="M296.39,323.69c-5.25,1.22-9.95,4.68-12.67,9.34l3.58-3.47c0.25,0.2,0.61,0.04,0.88-0.12
		c3.15-1.84,6.29-4.29,9.94-4.22c0.64,0.01,1.29,0.1,1.92-0.03c0.63-0.13,1.25-0.56,1.37-1.2
		C299.92,323.15,298.06,323.3,296.39,323.69z"/>
	<path class="st18" d="M84.25,173.87c0,0-13.96,1.64-19.26,14.9c-5.3,13.26,11.83,13.26,18.76,7.55l3.67-19.17L84.25,173.87z"/>
	<path class="st8" d="M79.56,120.5c-3.72-10.55-12.27-15.78-16.77-8.88c-1.41,2.17-2.42,5.3-3.11,9.07
		C66.68,120.97,73.36,120.89,79.56,120.5z"/>
	<path class="st10" d="M105.75,141.18c-0.78-1.57-2.42-2.54-3.68-2.16c-1.26,0.38-1.65,1.96-0.87,3.53
		c0.78,1.57,2.42,2.54,3.68,2.16C106.13,144.33,106.52,142.75,105.75,141.18z"/>
	<path class="st10" d="M132.87,132.61c-0.78-1.57-2.42-2.54-3.68-2.16c-1.26,0.38-1.65,1.96-0.87,3.53
		c0.78,1.57,2.42,2.54,3.68,2.16C133.25,135.76,133.64,134.18,132.87,132.61z"/>
	<path class="st19" d="M99.16,92.36c-2.14-0.09-3.89-1.62-4-3.5l-1.65-29.22l-2.09,0.11l1.71,30.2c0.11,1.88,1.86,3.41,4,3.5
		l19.69,0.86l0.04-1.18L99.16,92.36z"/>
	<path class="st19" d="M109.11,68.05c2.94-1.1,5.88-1.88,8.75-2.37l0.27-7.32l-26.71,1.39l1.08,19.05
		C96.54,74.46,102.26,70.61,109.11,68.05z"/>
	<path class="st14" d="M117.42,55.13l-51.8,1.11c-0.79,0.02-1.38,0.54-1.32,1.17l0.23,2.42c0.06,0.62,0.73,1.1,1.5,1.08l51.8-1.11
		c0.79-0.02,1.38-0.54,1.32-1.17l-0.23-2.42C118.86,55.6,118.19,55.12,117.42,55.13z"/>
	<path class="st14" d="M80.16,68.43c-3.48-3.14-8.08-2.87-10.28,0.59c-2.2,3.46-1.17,8.81,2.31,11.95
		c3.48,3.14,8.08,2.87,10.28-0.59C84.67,76.92,83.63,71.57,80.16,68.43z"/>
	<path class="st15" d="M76.69,37.3c-2.89,6.87-5.82,18.25-4.17,34.42l5.29-1.83c-2.89-13.41,0.55-26.11,3.93-34.39
		C79.98,35.98,78.29,36.58,76.69,37.3z"/>
	<path class="st10" d="M78.26,69.97c-2.77-2.5-6.45-2.29-8.2,0.47c-1.76,2.76-0.93,7.03,1.84,9.53c2.77,2.5,6.45,2.29,8.2-0.47
		C81.86,76.74,81.03,72.47,78.26,69.97z"/>
	<path class="st20" d="M117.42,55.13l-32.3,0.69c0,0.04-0.01,0.07-0.01,0.11c0,1.64,1.13,3.18,3.08,4.5l29.65-0.64
		c0.79-0.02,1.38-0.54,1.32-1.17l-0.23-2.42C118.86,55.6,118.19,55.12,117.42,55.13z"/>
	<path class="st21" d="M115.09,91.82l0.52-17.93c-3.09,0.91-6.05,7.85-6.89,16.64c-0.03,0.31-0.05,0.62-0.07,0.93L115.09,91.82z"/>
	<path class="st18" d="M134.01,157.95l-4.74,0.78c-1.91,0.31-3.21,2.12-2.9,4.03l3,18.29c0.31,1.91,2.12,3.21,4.03,2.9l4.74-0.78
		c1.91-0.31,3.21-2.12,2.9-4.03l-3-18.29C137.73,158.94,135.92,157.64,134.01,157.95z"/>
	<path class="st18" d="M188.52,145.45l-4.74,0.78c-1.91,0.31-3.21,2.12-2.9,4.03l3,18.29c0.31,1.91,2.12,3.21,4.03,2.9l4.74-0.78
		c1.91-0.31,3.21-2.12,2.9-4.03l-3-18.29C192.24,146.43,190.44,145.13,188.52,145.45z"/>
	<path class="st0" d="M75.46,197.16c22.37,1.49,60.32-17.34,61.56-20.37c1.97-4.84-45.64,0.84-54.28-0.5
		C74.26,174.95,68.53,196.7,75.46,197.16z"/>
	<path class="st2" d="M116.5,184.96c-19.15,4.89-35.87,4.17-37.35-1.61c-0.53-2.07,0.98-4.51,4-7.02c-0.13-0.02-0.29-0.03-0.41-0.05
		c-8.49-1.33-14.21,20.42-7.28,20.88c20.12,1.34,52.85-13.76,60.12-19.02C130.31,180.72,123.75,183.11,116.5,184.96z"/>
	<path class="st22" d="M255.63,397.27c-12.88-12.88-8.41-29.97,46.53-63.62c17.61-5.22,25.53-1.88,13.67,18.93L255.63,397.27z"/>
	<path class="st10" d="M290.45,358.19c-0.57-0.8-3.47,0.27-6.47,2.41c-3,2.13-4.98,4.51-4.41,5.32c0.57,0.8,3.47-0.27,6.47-2.41
		C289.04,361.37,291.01,358.99,290.45,358.19z"/>
	<path class="st10" d="M284.13,355.6c18.61-13.32,28.58-12,19.6-0.71C318.7,340.43,308.45,338.2,284.13,355.6z"/>
	<path class="st10" d="M278.51,360.14c-17.47,14.47-20.99,22.54-7.64,16.91C252.67,386.9,255.33,378.88,278.51,360.14z"/>
	<g>
		<path class="st17" d="M394.32,416.07c0.74-11.42,10.67-22.13,9.2-33.96c-3.85,4.55-6.99,9.87-9.24,15.65
			c1.03-7.04,2.07-14.08,3.1-21.12c-3.59,5.39-6.54,11.33-8.76,17.61c0.77-3.95,1.54-7.91,2.31-11.86
			c-5.93,3.53-10.28,10.34-11.4,17.87c-1.51-2.66-2.29-5.86-2.2-9.03c-1.21,3.08-1.86,6.44-1.91,9.81
			c-0.76-13.26-1.65-28.06-6.82-38.99c2.27,12.5,3.02,26.6-2.18,38.35c-1.56-2.88-2.45-6.23-2.56-9.62
			c-1.91,1.92-3.25,4.56-3.76,7.41c1.18-8.19,4.29-16.02,8.92-22.42c-9.1,0.3-14.79,11.04-18.72,20.42c-0.93-3.2-1.86-6.4-2.79-9.6
			c-1.7,2.62-3.39,5.23-5.09,7.85c-0.96-2.86-1.49-5.91-1.54-8.97c-2.22,2.92-3.78,6.51-4.46,10.3c0.75-10.88,3.82-21.55,8.87-30.81
			c-6.95,7.02-11.46,17.1-12.36,27.64c-0.23-1.58-0.47-3.17-0.7-4.75c-1.06,2.82-1.65,5.87-1.72,8.94
			c-2.01-9.69-4.03-19.38-6.04-29.07c-0.13,1.64-0.38,3.28-0.66,4.85c-1.49,8.28-2.98,16.57-4.47,24.85
			c-0.63-1.89-2.73-2.73-4.45-2.24c-1.72,0.49-3.08,1.99-4.13,3.62c3.04-12.62,7.28-24.87,12.59-36.47c-0.06-0.3-0.12-0.6-0.19-0.9
			c-10.56,8.84-18.93,21.07-23.81,34.95c-1.73-1.44-2.64-4.05-2.26-6.45c-1.33,1.74-2.25,3.88-2.65,6.14
			c1.09-10.82,3.89-21.42,8.29-31.08c-9.29,8.22-15.83,20.38-18.05,33.55c-0.71-2.99-1.42-5.98-2.12-8.97
			c-3.09,3.7-4.95,8.71-5.14,13.81c0.18-10.84,2.11-21.63,5.66-31.69c-7.48,9.39-12.42,21.38-14,33.94
			c0.08-1.37-1.73-1.77-2.78-1.11c-1.06,0.66-1.93,1.86-3.13,1.97c-0.79,0.07-1.53-0.36-2.28-0.63c-3.71-1.35-8.93,0.48-10.83-3.41
			c-0.38,4.84-6.39,5.8-10.4,4.17c-4.01-1.63-8.38-4.45-12.21-2.32c-0.83,0.46-1.62,1.16-2.55,1.21c-1.47,0.07-2.57-1.48-3.94-2.08
			c-2-0.88-4.17,0.35-6.25,0.94c-2.08,0.59-4.96-0.07-5.24-2.5c-0.76,1.61-2.9,2.06-4.11,0.87c-3.34,5.97-12.35,5.89-15.61-0.14
			c-5.82-0.54-12.01,2.82-17.29-0.01c-1.24-0.66-2.35-1.66-3.13-2.94c-0.34,1.67-2.33,2.55-3.57,1.58c-1.55,3.41-6.1,1.52-8.81-0.76
			c0.99,5.2,1.97,10.4,2.96,15.59H394.32z"/>
	</g>
	<path class="st23" d="M302.16,333.65c-54.95,33.65-59.42,50.74-46.53,63.62l2.44-1.81c-10.38-11.61-5.04-27.14,43.43-56.82
		c15.1-4.47,22.37-2.03,14.16,14.08l0.18-0.14C327.69,331.77,319.77,328.43,302.16,333.65z"/>
	<polygon class="st6" points="135.54,230.16 127.18,240.76 117.59,229.75 126.77,232.4 	"/>
	<g>
		<path class="st0" d="M126.24,177.26c3.79-2.53,6.92-6.59,8.61-6.24c1.69,0.34,4.19,6.53-0.22,8.12
			c-4.41,1.59-10.98,1.81-10.98,1.81L126.24,177.26z"/>
		<path class="st0" d="M126.42,176.32c3.46-3.56,5.92-12.25,7-12.08c1.03,0.16-1.16,10.59-2.37,11.62
			C129.79,176.94,125.02,177.76,126.42,176.32z"/>
		<path class="st0" d="M128.56,174.08c7.84-2.44,11.31-9.05,12.17-9.09c0.86-0.04-1.14,5.6-5.3,8.15
			C131.27,175.7,128.56,174.08,128.56,174.08z"/>
		<path class="st0" d="M128.98,176.31c8.01-1.62,13.19-8.47,14.22-8.4c1.02,0.06-2.66,5.71-7.16,7.68
			C131.97,177.37,128.98,176.31,128.98,176.31z"/>
		<path class="st0" d="M129.08,179.37c8.62-2.04,12.82-7.19,13.45-7.09c0.61,0.1-1.91,4.08-5.78,5.94
			C132.24,180.39,129.08,179.37,129.08,179.37z"/>
	</g>
	<path class="st0" d="M175.87,156.04c4.4-2.3,9.44-9.8,10.41-9.31c0.92,0.47-4.4,9.71-5.87,10.31
		C178.89,157.67,174.1,156.96,175.87,156.04z"/>
</g>
</svg>
